<svg width="29" height="24" viewBox="0 0 29 24" fill="none" xmlns="http://www.w3.org/2000/svg">
<path d="M28.1953 3.1998C28.1953 2.56329 27.9267 1.95284 27.4484 1.50275C26.9702 1.05266 26.3216 0.799805 25.6453 0.799805L3.54531 0.799804C2.86901 0.799804 2.22041 1.05266 1.74219 1.50275C1.26398 1.95283 0.995314 2.56328 0.995314 3.1998L0.995313 14.3998C0.995313 15.0363 1.26397 15.6468 1.74219 16.0969C2.22041 16.5469 2.86901 16.7998 3.54531 16.7998L6.09531 16.7998C6.32075 16.7998 6.53695 16.7155 6.69635 16.5655C6.85576 16.4155 6.94531 16.212 6.94531 15.9998C6.94531 15.339 7.11871 14.9166 7.34651 14.6302C7.57941 14.3374 7.92791 14.115 8.40561 13.9518C9.40521 13.6094 10.7295 13.5998 12.0453 13.5998C12.1571 13.5998 12.2678 13.579 12.3711 13.5386C12.4744 13.4983 12.5682 13.4391 12.6471 13.3646L13.135 12.907L15.1971 10.9662C15.991 10.219 16.5231 9.9998 16.8206 9.9582C17.0586 9.92621 17.2184 9.9934 17.3816 10.1534C17.7301 10.4958 17.9664 10.7406 18.0378 11.0174C18.082 11.1822 18.1126 11.5582 17.3952 12.2334L12.2952 17.0334C12.1356 17.1834 12.0459 17.3869 12.0457 17.5992C12.0456 17.7044 12.0675 17.8085 12.1102 17.9056C12.1529 18.0027 12.2154 18.091 12.2944 18.1654C12.3733 18.2398 12.467 18.2988 12.5701 18.3391C12.6733 18.3794 12.7839 18.4002 12.8956 18.4003C13.0072 18.4003 13.1179 18.3797 13.2211 18.3395C13.3243 18.2994 13.4181 18.2405 13.4971 18.1662L14.9472 16.7998L20.1934 16.7998L15.8414 20.8958C15.6046 21.1189 15.3235 21.2959 15.014 21.4167C14.7045 21.5375 14.3728 21.5997 14.0377 21.5998L1.84531 21.5998C1.61988 21.5998 1.40368 21.6841 1.24427 21.8341C1.08486 21.9841 0.995313 22.1876 0.995313 22.3998C0.995313 22.612 1.08486 22.8155 1.24427 22.9655C1.40368 23.1155 1.61988 23.1998 1.84531 23.1998L14.0377 23.1998C15.1644 23.1996 16.2448 22.7783 17.0416 22.0286L22.5972 16.7998L25.6453 16.7998C26.3216 16.7998 26.9702 16.547 27.4484 16.0969C27.9267 15.6468 28.1953 15.0363 28.1953 14.3998L28.1953 3.1998ZM22.2453 15.1998L16.6472 15.1998L18.5971 13.3662C19.5797 12.4398 19.918 11.5198 19.6902 10.6382C19.6448 10.465 19.5792 10.2971 19.4947 10.1374C19.7148 9.4222 19.7552 8.6686 19.6127 7.93617C19.4701 7.20375 19.1485 6.51256 18.6733 5.91724C18.1981 5.32192 17.5822 4.83878 16.8745 4.50601C16.1667 4.17323 15.3865 3.99993 14.5953 3.9998C13.6094 3.99974 12.6446 4.26863 11.8177 4.77393C10.9908 5.27923 10.3372 5.99928 9.93612 6.84693C9.53501 7.69457 9.40354 8.63347 9.55762 9.54998C9.71171 10.4665 10.1447 11.3213 10.8043 12.011C9.82171 12.0382 8.74731 12.131 7.82421 12.4478C7.13231 12.6846 6.47101 13.0622 5.98821 13.6702L5.97801 13.6798C5.81522 13.1926 5.49152 12.767 5.05401 12.4648C4.61649 12.1627 4.08797 11.9998 3.54531 11.9998L2.69531 11.9998L2.69531 5.5998L3.54531 5.5998C4.22161 5.5998 4.87022 5.34695 5.34844 4.89686C5.82665 4.44677 6.09531 3.83632 6.09531 3.1998L6.09531 2.3998L23.0953 2.3998L23.0953 3.1998C23.0953 3.83632 23.364 4.44677 23.8422 4.89686C24.3204 5.34695 24.969 5.5998 25.6453 5.5998L26.4953 5.5998L26.4953 11.9998L25.6453 11.9998C24.969 11.9998 24.3204 12.2527 23.8422 12.7027C23.364 13.1528 23.0953 13.7633 23.0953 14.3998L23.0953 15.1998L22.2453 15.1998ZM3.54531 15.1998L3.53001 15.1998C3.30724 15.196 3.09495 15.1101 2.93884 14.9605C2.78273 14.8108 2.69528 14.6095 2.69531 14.3998L2.69531 13.5998L3.54531 13.5998C3.77075 13.5998 3.98695 13.6841 4.14635 13.8341C4.30576 13.9841 4.39531 14.1876 4.39531 14.3998L4.39531 15.1998L3.54531 15.1998ZM14.5953 5.5998C15.46 5.59982 16.2921 5.90987 16.9225 6.46689C17.5528 7.02391 17.934 7.78604 17.9885 8.59821C17.5975 8.39981 17.1215 8.29901 16.5724 8.3758C15.753 8.48941 14.9013 8.9806 13.9952 9.8334L12.4533 11.2846C11.9078 10.868 11.5129 10.3026 11.3227 9.66614C11.1325 9.02967 11.1565 8.35339 11.3912 7.73025C11.626 7.10712 12.0601 6.56773 12.6339 6.18624C13.2076 5.80475 13.8928 5.59988 14.5953 5.5998ZM26.4953 3.9998L25.6453 3.9998C25.4199 3.9998 25.2037 3.91552 25.0443 3.76549C24.8849 3.61546 24.7953 3.41198 24.7953 3.1998L24.7953 2.3998L25.6453 2.3998C25.8707 2.3998 26.0869 2.48409 26.2464 2.63412C26.4058 2.78415 26.4953 2.98763 26.4953 3.1998L26.4953 3.9998ZM4.39531 2.3998L4.39531 3.1998C4.39531 3.41198 4.30576 3.61546 4.14635 3.76549C3.98695 3.91552 3.77075 3.9998 3.54531 3.9998L2.69531 3.9998L2.69531 3.1998C2.69531 2.98763 2.78487 2.78415 2.94427 2.63412C3.10368 2.48409 3.31988 2.3998 3.54531 2.3998L4.39531 2.3998ZM24.7953 15.1998L24.7953 14.3998C24.7953 14.1876 24.8849 13.9841 25.0443 13.8341C25.2037 13.6841 25.4199 13.5998 25.6453 13.5998L26.4953 13.5998L26.4953 14.3998C26.4953 14.612 26.4058 14.8155 26.2464 14.9655C26.0869 15.1155 25.8707 15.1998 25.6453 15.1998L24.7953 15.1998Z" fill="white"/>
</svg>
