<svg width="105" height="105" viewBox="0 0 105 105" fill="none" xmlns="http://www.w3.org/2000/svg">
<path d="M32.8125 98.4375C36.4369 98.4375 39.375 95.4994 39.375 91.875C39.375 88.2506 36.4369 85.3125 32.8125 85.3125C29.1881 85.3125 26.25 88.2506 26.25 91.875C26.25 95.4994 29.1881 98.4375 32.8125 98.4375Z" fill="url(#paint0_linear_5319_2568)"/>
<path d="M78.75 98.4375C82.3744 98.4375 85.3125 95.4994 85.3125 91.875C85.3125 88.2506 82.3744 85.3125 78.75 85.3125C75.1256 85.3125 72.1875 88.2506 72.1875 91.875C72.1875 95.4994 75.1256 98.4375 78.75 98.4375Z" fill="url(#paint1_linear_5319_2568)"/>
<path d="M16.3406 9.20062C16.192 8.45706 15.7904 7.78792 15.2042 7.30697C14.618 6.82602 13.8833 6.56296 13.125 6.5625H0V13.125H10.4344L23.0344 76.1119C23.183 76.8554 23.5846 77.5246 24.1708 78.0055C24.757 78.4865 25.4917 78.7495 26.25 78.75H85.3125V72.1875H28.9406L26.3156 59.0625H85.3125C86.0589 59.0624 86.783 58.8078 87.3652 58.3407C87.9475 57.8736 88.353 57.2219 88.515 56.4933L95.9569 22.9688H89.2402L82.6809 52.5H25.0031L16.3406 9.20062Z" fill="url(#paint2_linear_5319_2568)"/>
<path d="M70.8291 21.6103L59.0625 33.3769V6.5625H52.5V33.3769L40.7334 21.6103L36.0938 26.25L55.7812 45.9375L75.4688 26.25L70.8291 21.6103Z" fill="url(#paint3_linear_5319_2568)"/>
<defs>
<linearGradient id="paint0_linear_5319_2568" x1="26.25" y1="91.875" x2="39.375" y2="91.875" gradientUnits="userSpaceOnUse">
<stop stop-color="#4DB1FF"/>
<stop offset="1" stop-color="#A65FFF"/>
</linearGradient>
<linearGradient id="paint1_linear_5319_2568" x1="72.1875" y1="91.875" x2="85.3125" y2="91.875" gradientUnits="userSpaceOnUse">
<stop stop-color="#4DB1FF"/>
<stop offset="1" stop-color="#A65FFF"/>
</linearGradient>
<linearGradient id="paint2_linear_5319_2568" x1="0" y1="42.6563" x2="95.9569" y2="42.6563" gradientUnits="userSpaceOnUse">
<stop stop-color="#4DB1FF"/>
<stop offset="1" stop-color="#A65FFF"/>
</linearGradient>
<linearGradient id="paint3_linear_5319_2568" x1="36.0938" y1="26.25" x2="75.4688" y2="26.25" gradientUnits="userSpaceOnUse">
<stop stop-color="#4DB1FF"/>
<stop offset="1" stop-color="#A65FFF"/>
</linearGradient>
</defs>
</svg>
