<svg width="24" height="24" viewBox="0 0 24 24" fill="none" xmlns="http://www.w3.org/2000/svg">
<path d="M9.33337 14.6667C9.76788 15.1101 10.2865 15.4624 10.8589 15.7029C11.4312 15.9435 12.0459 16.0673 12.6667 16.0673C13.2876 16.0673 13.9022 15.9435 14.4745 15.7029C15.0469 15.4624 15.5655 15.1101 16 14.6667L21.3334 9.33333C22.2174 8.44927 22.7141 7.25024 22.7141 5.99999C22.7141 4.74975 22.2174 3.55072 21.3334 2.66666C20.4493 1.78261 19.2503 1.28595 18 1.28595C16.7498 1.28595 15.5508 1.78261 14.6667 2.66666L14 3.33333" stroke="white" stroke-width="2" stroke-linecap="round" stroke-linejoin="round"/>
<path d="M14.6667 9.3333C14.2322 8.88983 13.7136 8.53753 13.1412 8.29701C12.5688 8.0565 11.9542 7.93262 11.3334 7.93262C10.7125 7.93262 10.0979 8.0565 9.52556 8.29701C8.95319 8.53753 8.43456 8.88983 8.00006 9.3333L2.66672 14.6666C1.78267 15.5507 1.28601 16.7497 1.28601 18C1.28601 19.2502 1.78267 20.4492 2.66672 21.3333C3.55078 22.2174 4.74981 22.714 6.00006 22.714C7.2503 22.714 8.44933 22.2174 9.33339 21.3333L10.0001 20.6666" stroke="white" stroke-width="2" stroke-linecap="round" stroke-linejoin="round"/>
</svg>
