<svg width="104" height="72" viewBox="0 0 104 72" fill="none" xmlns="http://www.w3.org/2000/svg">
<path d="M99.3438 0.609375H36.0625C33.9883 0.609375 32.3125 2.28516 32.3125 4.35938V32.0156H4.65625C2.58203 32.0156 0.90625 33.6914 0.90625 35.7656V67.6406C0.90625 69.7148 2.58203 71.3906 4.65625 71.3906H67.9375C70.0117 71.3906 71.6875 69.7148 71.6875 67.6406V39.9844H99.3438C101.418 39.9844 103.094 38.3086 103.094 36.2344V4.35938C103.094 2.28516 101.418 0.609375 99.3438 0.609375ZM40.2812 8.57812H63.7188V32.0156H40.2812V8.57812ZM32.3125 63.4219H8.875V39.9844H32.3125V63.4219ZM63.7188 63.4219H40.2812V39.9844H63.7188V63.4219ZM95.125 32.0156H71.6875V8.57812H95.125V32.0156Z" fill="url(#paint0_linear_5319_2603)"/>
<defs>
<linearGradient id="paint0_linear_5319_2603" x1="0.90625" y1="36" x2="103.094" y2="36" gradientUnits="userSpaceOnUse">
<stop stop-color="#4DB1FF"/>
<stop offset="1" stop-color="#A65FFF"/>
</linearGradient>
</defs>
</svg>
