<svg width="24" height="28" viewBox="0 0 24 28" fill="none" xmlns="http://www.w3.org/2000/svg">
<path fill-rule="evenodd" clip-rule="evenodd" d="M17.25 4.375H23.625V6.5H21.5V25.625L19.375 27.75H4.5L2.375 25.625V6.5H0.25V4.375H6.625V2.25C6.625 1.68641 6.84888 1.14591 7.2474 0.747398C7.64591 0.348883 8.18641 0.125 8.75 0.125H15.125C15.6886 0.125 16.2291 0.348883 16.6276 0.747398C17.0261 1.14591 17.25 1.68641 17.25 2.25V4.375ZM15.125 2.25H8.75V4.375H15.125V2.25ZM4.5 25.625H19.375V6.5H4.5V25.625ZM8.75 8.625H6.625V23.5H8.75V8.625ZM10.875 8.625H13V23.5H10.875V8.625ZM15.125 8.625H17.25V23.5H15.125V8.625Z" fill="white"/>
</svg>
