<svg width="22" height="17" viewBox="0 0 22 17" fill="none" xmlns="http://www.w3.org/2000/svg">
<path d="M18.401 1.92731C17.0283 1.30827 15.557 0.850715 14.0183 0.590537C14.0046 0.587907 13.9905 0.589602 13.9778 0.595389C13.9651 0.601175 13.9545 0.610767 13.9475 0.622835C13.7591 0.95389 13.5491 1.38543 13.402 1.72635C11.7701 1.48253 10.1111 1.48253 8.47924 1.72635C8.31536 1.34852 8.13056 0.980109 7.92569 0.622835C7.91875 0.610618 7.90824 0.60081 7.89558 0.594718C7.88292 0.588627 7.8687 0.586542 7.85482 0.588743C6.31707 0.848921 4.84572 1.30648 3.47216 1.92642C3.46034 1.93137 3.45033 1.93983 3.44345 1.95064C0.651472 6.05517 -0.11381 10.0583 0.262102 14.0112C0.263148 14.0209 0.266153 14.0303 0.270935 14.0388C0.275716 14.0473 0.282174 14.0547 0.289914 14.0606C1.91952 15.247 3.73713 16.1508 5.66663 16.7341C5.68008 16.7383 5.69447 16.7383 5.70791 16.7341C5.72135 16.7299 5.73323 16.7218 5.74199 16.7108C6.1572 16.1555 6.52513 15.5664 6.84192 14.9497C6.84631 14.9412 6.84885 14.932 6.84935 14.9225C6.84985 14.913 6.8483 14.9035 6.84481 14.8946C6.84132 14.8858 6.83598 14.8778 6.82913 14.8712C6.82229 14.8646 6.8141 14.8595 6.80513 14.8564C6.22557 14.6381 5.66401 14.3747 5.12564 14.0687C5.11596 14.0631 5.10781 14.0553 5.10191 14.0458C5.09602 14.0364 5.09256 14.0256 5.09185 14.0145C5.09113 14.0034 5.09319 13.9923 5.09784 13.9822C5.10248 13.972 5.10957 13.9632 5.11846 13.9565C5.2315 13.8731 5.34455 13.7861 5.45221 13.699C5.4619 13.6912 5.47357 13.6862 5.48593 13.6846C5.49828 13.683 5.51083 13.6849 5.52219 13.6901C9.04536 15.2727 12.861 15.2727 16.3429 13.6901C16.3543 13.6846 16.367 13.6825 16.3795 13.6839C16.392 13.6854 16.4039 13.6903 16.4138 13.6981C16.5214 13.786 16.6336 13.8731 16.7475 13.9565C16.7565 13.9631 16.7637 13.9718 16.7685 13.9818C16.7733 13.9919 16.7755 14.0029 16.775 14.014C16.7745 14.0251 16.7712 14.0359 16.7654 14.0455C16.7597 14.055 16.7517 14.063 16.7421 14.0687C16.2056 14.3773 15.6476 14.6384 15.0617 14.8555C15.0528 14.8587 15.0446 14.8639 15.0377 14.8706C15.0309 14.8773 15.0255 14.8853 15.022 14.8942C15.0186 14.9032 15.017 14.9127 15.0175 14.9223C15.018 14.9318 15.0206 14.9412 15.025 14.9497C15.3479 15.566 15.7176 16.1528 16.124 16.7099C16.1324 16.7213 16.1442 16.7299 16.1577 16.7344C16.1712 16.7389 16.1857 16.7391 16.1994 16.735C18.1322 16.1533 19.9527 15.2491 21.5841 14.0606C21.5921 14.055 21.5988 14.0478 21.6037 14.0395C21.6087 14.0311 21.6118 14.0218 21.6129 14.0121C22.0614 9.44197 20.861 5.47112 18.4288 1.95243C18.4228 1.941 18.413 1.93209 18.401 1.92731ZM7.36855 11.6041C6.3081 11.6041 5.43337 10.6451 5.43337 9.46889C5.43337 8.29181 6.29106 7.33363 7.36855 7.33363C8.45412 7.33363 9.32079 8.29988 9.30374 9.46889C9.30374 10.646 8.44605 11.6041 7.36855 11.6041ZM14.5234 11.6041C13.4621 11.6041 12.5883 10.6451 12.5883 9.46889C12.5883 8.29181 13.4451 7.33363 14.5234 7.33363C15.609 7.33363 16.4757 8.29988 16.4586 9.46889C16.4586 10.646 15.6099 11.6041 14.5234 11.6041Z" fill="#4FB0FF"/>
</svg>
