<svg width="29" height="32" viewBox="0 0 29 32" fill="none" xmlns="http://www.w3.org/2000/svg">
<path d="M25.5188 0.120361H4.24021C2.44582 0.120361 0.984894 1.58128 0.984894 3.39156V24.8607C0.984894 26.671 2.44582 28.1319 4.24021 28.1319H22.2477L21.406 25.1942L23.4386 27.0839L25.3601 28.8624L28.7742 31.8795V3.39156C28.7742 1.58128 27.3132 0.120361 25.5188 0.120361ZM19.3893 20.8591C19.3893 20.8591 18.8177 20.1763 18.3413 19.5728C20.4215 18.9853 21.2155 17.6832 21.2155 17.6832C20.5644 18.1119 19.9451 18.4136 19.3893 18.6201C18.5954 18.9535 17.8331 19.1759 17.0868 19.3029C15.7268 19.5533 14.332 19.5479 12.974 19.287C12.1767 19.131 11.3953 18.9025 10.6397 18.6042C10.2414 18.451 9.85404 18.2706 9.48047 18.0643C9.43283 18.0325 9.38519 18.0166 9.33755 17.9849C9.3058 17.969 9.28992 17.9531 9.27404 17.9373C8.9882 17.7785 8.82941 17.6673 8.82941 17.6673C8.82941 17.6673 9.59163 18.9377 11.6083 19.5411C11.1319 20.1445 10.5444 20.8591 10.5444 20.8591C7.03501 20.7479 5.70113 18.4454 5.70113 18.4454C5.70113 13.3322 7.98779 9.1876 7.98779 9.1876C10.2744 7.47261 12.45 7.52025 12.45 7.52025L12.6087 7.7108C9.75042 8.53654 8.43242 9.79103 8.43242 9.79103C8.43242 9.79103 8.78177 9.60047 9.36931 9.33052C11.0684 8.58418 12.4182 8.37774 12.974 8.3301C13.0693 8.31423 13.1487 8.29835 13.2439 8.29835C15.9976 7.92564 18.7981 8.44899 21.2314 9.79103C21.2314 9.79103 19.9769 8.60006 17.2773 7.77432L17.4997 7.52025C17.4997 7.52025 19.6752 7.47261 21.9618 9.1876C21.9618 9.1876 24.2485 13.3322 24.2485 18.4454C24.2485 18.4454 22.8987 20.7479 19.3893 20.8591Z" fill="#504A58"/>
</svg>
