<svg width="30" height="30" viewBox="0 0 30 30" fill="none" xmlns="http://www.w3.org/2000/svg">
<path d="M28.1469 0.453125H1.17273C0.524029 0.453125 -6.10352e-05 0.977215 -6.10352e-05 1.62591V28.6C-6.10352e-05 29.2487 0.524029 29.7728 1.17273 29.7728H28.1469C28.7956 29.7728 29.3196 29.2487 29.3196 28.6V1.62591C29.3196 0.977215 28.7956 0.453125 28.1469 0.453125ZM24.7604 9.01081H22.4185C20.5824 9.01081 20.2269 9.88307 20.2269 11.1658V13.9915H24.6102L24.0384 18.4151H20.2269V29.7728H15.6567V18.4188H11.8341V13.9915H15.6567V10.7297C15.6567 6.94377 17.9693 4.8804 21.3484 4.8804C22.9683 4.8804 24.3573 5.00134 24.7641 5.05632V9.01081H24.7604Z" fill="#504A58"/>
</svg>
