<svg width="21" height="25" viewBox="0 0 21 25" fill="none" xmlns="http://www.w3.org/2000/svg">
<path d="M6.5625 3.44169C6.2144 3.44169 5.88056 3.57997 5.63442 3.82612C5.38828 4.07226 5.25 4.4061 5.25 4.75419C5.25 5.10229 5.38828 5.43613 5.63442 5.68227C5.88056 5.92841 6.2144 6.06669 6.5625 6.06669C6.9106 6.06669 7.24444 5.92841 7.49058 5.68227C7.73672 5.43613 7.875 5.10229 7.875 4.75419C7.875 4.4061 7.73672 4.07226 7.49058 3.82612C7.24444 3.57997 6.9106 3.44169 6.5625 3.44169ZM2.84812 3.44169C3.11929 2.67318 3.62216 2.0077 4.28741 1.53698C4.95267 1.06626 5.74755 0.813477 6.5625 0.813477C7.37745 0.813477 8.17233 1.06626 8.83759 1.53698C9.50284 2.0077 10.0057 2.67318 10.2769 3.44169H19.6875C20.0356 3.44169 20.3694 3.57997 20.6156 3.82612C20.8617 4.07226 21 4.4061 21 4.75419C21 5.10229 20.8617 5.43613 20.6156 5.68227C20.3694 5.92841 20.0356 6.06669 19.6875 6.06669H10.2769C10.0057 6.83521 9.50284 7.50069 8.83759 7.97141C8.17233 8.44213 7.37745 8.69491 6.5625 8.69491C5.74755 8.69491 4.95267 8.44213 4.28741 7.97141C3.62216 7.50069 3.11929 6.83521 2.84812 6.06669H1.3125C0.964403 6.06669 0.630564 5.92841 0.384423 5.68227C0.138281 5.43613 0 5.10229 0 4.75419C0 4.4061 0.138281 4.07226 0.384423 3.82612C0.630564 3.57997 0.964403 3.44169 1.3125 3.44169H2.84812ZM14.4375 11.3167C14.0894 11.3167 13.7556 11.455 13.5094 11.7011C13.2633 11.9473 13.125 12.2811 13.125 12.6292C13.125 12.9773 13.2633 13.3111 13.5094 13.5573C13.7556 13.8034 14.0894 13.9417 14.4375 13.9417C14.7856 13.9417 15.1194 13.8034 15.3656 13.5573C15.6117 13.3111 15.75 12.9773 15.75 12.6292C15.75 12.2811 15.6117 11.9473 15.3656 11.7011C15.1194 11.455 14.7856 11.3167 14.4375 11.3167ZM10.7231 11.3167C10.9943 10.5482 11.4972 9.8827 12.1624 9.41198C12.8277 8.94126 13.6226 8.68848 14.4375 8.68848C15.2524 8.68848 16.0473 8.94126 16.7126 9.41198C17.3778 9.8827 17.8807 10.5482 18.1519 11.3167H19.6875C20.0356 11.3167 20.3694 11.455 20.6156 11.7011C20.8617 11.9473 21 12.2811 21 12.6292C21 12.9773 20.8617 13.3111 20.6156 13.5573C20.3694 13.8034 20.0356 13.9417 19.6875 13.9417H18.1519C17.8807 14.7102 17.3778 15.3757 16.7126 15.8464C16.0473 16.3171 15.2524 16.5699 14.4375 16.5699C13.6226 16.5699 12.8277 16.3171 12.1624 15.8464C11.4972 15.3757 10.9943 14.7102 10.7231 13.9417H1.3125C0.964403 13.9417 0.630564 13.8034 0.384423 13.5573C0.138281 13.3111 0 12.9773 0 12.6292C0 12.2811 0.138281 11.9473 0.384423 11.7011C0.630564 11.455 0.964403 11.3167 1.3125 11.3167H10.7231ZM6.5625 19.1917C6.2144 19.1917 5.88056 19.33 5.63442 19.5761C5.38828 19.8223 5.25 20.1561 5.25 20.5042C5.25 20.8523 5.38828 21.1861 5.63442 21.4323C5.88056 21.6784 6.2144 21.8167 6.5625 21.8167C6.9106 21.8167 7.24444 21.6784 7.49058 21.4323C7.73672 21.1861 7.875 20.8523 7.875 20.5042C7.875 20.1561 7.73672 19.8223 7.49058 19.5761C7.24444 19.33 6.9106 19.1917 6.5625 19.1917ZM2.84812 19.1917C3.11929 18.4232 3.62216 17.7577 4.28741 17.287C4.95267 16.8163 5.74755 16.5635 6.5625 16.5635C7.37745 16.5635 8.17233 16.8163 8.83759 17.287C9.50284 17.7577 10.0057 18.4232 10.2769 19.1917H19.6875C20.0356 19.1917 20.3694 19.33 20.6156 19.5761C20.8617 19.8223 21 20.1561 21 20.5042C21 20.8523 20.8617 21.1861 20.6156 21.4323C20.3694 21.6784 20.0356 21.8167 19.6875 21.8167H10.2769C10.0057 22.5852 9.50284 23.2507 8.83759 23.7214C8.17233 24.1921 7.37745 24.4449 6.5625 24.4449C5.74755 24.4449 4.95267 24.1921 4.28741 23.7214C3.62216 23.2507 3.11929 22.5852 2.84812 21.8167H1.3125C0.964403 21.8167 0.630564 21.6784 0.384423 21.4323C0.138281 21.1861 0 20.8523 0 20.5042C0 20.1561 0.138281 19.8223 0.384423 19.5761C0.630564 19.33 0.964403 19.1917 1.3125 19.1917H2.84812Z" fill="#A29DB0"/>
</svg>
