<svg width="28" height="28" fill="none" xmlns="http://www.w3.org/2000/svg">
  <path d="M9 14c0-1.393.078-2.734.222-4h9.556c.144 1.266.222 2.607.222 4 0 1.393-.078 2.734-.222 4H9.222A35.488 35.488 0 0 1 9 14Zm-1.79 4A37.622 37.622 0 0 1 7 14c0-1.379.073-2.72.21-4H.58A14.002 14.002 0 0 0 0 14c0 1.39.203 2.733.58 4h6.63Zm-5.863 2h6.138c.314 1.86.771 3.547 1.344 4.978.369.922.793 1.758 1.272 2.472A14.035 14.035 0 0 1 1.347 20Zm8.168 0h8.97c-.29 1.6-.69 3.032-1.17 4.235-.516 1.288-1.104 2.262-1.706 2.9-.6.634-1.144.865-1.609.865-.465 0-1.009-.231-1.609-.866-.602-.637-1.19-1.611-1.705-2.899-.481-1.203-.881-2.636-1.171-4.235Zm11 0c-.314 1.86-.771 3.547-1.344 4.978-.369.922-.793 1.758-1.272 2.472A14.035 14.035 0 0 0 26.653 20h-6.138Zm6.905-2c.377-1.267.58-2.61.58-4 0-1.39-.203-2.733-.58-4h-6.63c.137 1.28.21 2.621.21 4s-.073 2.72-.21 4h6.63ZM17.314 3.765c.481 1.203.881 2.636 1.171 4.235h-8.97c.29-1.6.69-3.032 1.17-4.235.516-1.288 1.104-2.263 1.706-2.9.598-.631 1.14-.863 1.604-.865h.008c.464 0 1.007.233 1.606.866.602.636 1.19 1.611 1.705 2.899ZM20.515 8h6.138A14.036 14.036 0 0 0 17.899.55c.479.714.903 1.55 1.272 2.472.573 1.431 1.03 3.118 1.344 4.978ZM1.347 8h6.138c.314-1.86.771-3.547 1.344-4.978.369-.922.793-1.758 1.272-2.472A14.036 14.036 0 0 0 1.347 8Z" fill="#4FB0FF"/>
</svg>
