<svg width="40" height="40" viewBox="0 0 40 40" fill="none" xmlns="http://www.w3.org/2000/svg">
<path d="M20 4C11.1776 4 4 11.1776 4 20C4 28.8224 11.1776 36 20 36C28.8224 36 36 28.8224 36 20C36 11.1776 28.8224 4 20 4ZM21.6 29.6H18.4V26.4H21.6V29.6ZM23.1616 21.784C22.848 22.0368 22.5456 22.2784 22.3056 22.5184C21.6528 23.1696 21.6016 23.7616 21.6 23.7872V24H18.4V23.7328C18.4 23.544 18.4464 21.8496 20.0416 20.2544C20.3536 19.9424 20.7408 19.6256 21.1472 19.296C22.3216 18.344 23.0928 17.6496 23.0928 16.6928C23.0742 15.8845 22.74 15.1156 22.1617 14.5506C21.5834 13.9856 20.8069 13.6693 19.9984 13.6696C19.1899 13.6698 18.4136 13.9864 17.8356 14.5517C17.2576 15.117 16.9238 15.8861 16.9056 16.6944H13.7056C13.7056 13.224 16.5296 10.4 20 10.4C23.4704 10.4 26.2944 13.224 26.2944 16.6944C26.2944 19.2496 24.408 20.7744 23.1616 21.784Z" fill="#504A58"/>
<circle cx="20" cy="20" r="19.5" stroke="#504A58"/>
</svg>