<svg width="30" height="30" viewBox="0 0 30 30" fill="none" xmlns="http://www.w3.org/2000/svg">
<path fill-rule="evenodd" clip-rule="evenodd" d="M8.9487 0.541084C10.512 0.469118 11.0104 0.453125 14.9926 0.453125C18.9747 0.453125 19.4731 0.47045 21.0351 0.541084C22.597 0.611718 23.6632 0.860936 24.5961 1.2221C25.573 1.59126 26.4592 2.16833 27.1922 2.91465C27.9385 3.64631 28.5143 4.53123 28.8821 5.50944C29.2446 6.44234 29.4925 7.50851 29.5645 9.06779C29.6364 10.6337 29.6524 11.1322 29.6524 15.113C29.6524 19.0951 29.6351 19.5936 29.5645 21.1568C29.4938 22.7161 29.2446 23.7823 28.8821 24.7152C28.5143 25.6935 27.9376 26.5799 27.1922 27.3126C26.4592 28.059 25.573 28.6347 24.5961 29.0025C23.6632 29.365 22.597 29.6129 21.0378 29.6849C19.4731 29.7568 18.9747 29.7728 14.9926 29.7728C11.0104 29.7728 10.512 29.7555 8.9487 29.6849C7.38943 29.6142 6.32325 29.365 5.39035 29.0025C4.41204 28.6347 3.52565 28.058 2.79289 27.3126C2.04708 26.5805 1.46993 25.6946 1.10168 24.7165C0.740513 23.7836 0.492628 22.7174 0.420662 21.1582C0.348695 19.5922 0.332703 19.0938 0.332703 15.113C0.332703 11.1308 0.350028 10.6324 0.420662 9.07046C0.491296 7.50851 0.740513 6.44234 1.10168 5.50944C1.47047 4.53134 2.04806 3.64539 2.79423 2.91332C3.52594 2.16766 4.41144 1.59052 5.38902 1.2221C6.32192 0.860936 7.38809 0.613051 8.94737 0.541084H8.9487ZM20.9165 3.17986C19.3705 3.10922 18.9067 3.09456 14.9926 3.09456C11.0784 3.09456 10.6146 3.10922 9.06864 3.17986C7.63864 3.24516 6.863 3.48372 6.34591 3.68496C5.66223 3.9515 5.17312 4.26735 4.66003 4.78045C4.17365 5.25363 3.79933 5.82967 3.56453 6.46633C3.36329 6.98343 3.12474 7.75906 3.05944 9.18907C2.9888 10.735 2.97414 11.1988 2.97414 15.113C2.97414 19.0272 2.9888 19.4909 3.05944 21.0369C3.12474 22.4669 3.36329 23.2425 3.56453 23.7596C3.79909 24.3953 4.17359 24.9724 4.66003 25.4455C5.13314 25.932 5.71021 26.3065 6.34591 26.541C6.863 26.7422 7.63864 26.9808 9.06864 27.0461C10.6146 27.1167 11.077 27.1314 14.9926 27.1314C18.9081 27.1314 19.3705 27.1167 20.9165 27.0461C22.3465 26.9808 23.1221 26.7422 23.6392 26.541C24.3229 26.2745 24.812 25.9586 25.3251 25.4455C25.8115 24.9724 26.186 24.3953 26.4206 23.7596C26.6218 23.2425 26.8604 22.4669 26.9257 21.0369C26.9963 19.4909 27.011 19.0272 27.011 15.113C27.011 11.1988 26.9963 10.735 26.9257 9.18907C26.8604 7.75906 26.6218 6.98343 26.4206 6.46633C26.154 5.78265 25.8382 5.29354 25.3251 4.78045C24.8519 4.2941 24.2759 3.9198 23.6392 3.68496C23.1221 3.48372 22.3465 3.24516 20.9165 3.17986ZM13.1201 19.6322C14.1658 20.0675 15.3302 20.1263 16.4145 19.7984C17.4987 19.4706 18.4355 18.7765 19.0648 17.8347C19.6941 16.8929 19.977 15.7618 19.865 14.6347C19.7531 13.5075 19.2533 12.4542 18.451 11.6546C17.9395 11.1435 17.3211 10.7521 16.6402 10.5087C15.9594 10.2652 15.233 10.1758 14.5134 10.2467C13.7939 10.3177 13.099 10.5473 12.4788 10.9191C11.8586 11.2909 11.3286 11.7955 10.9269 12.3967C10.5251 12.9979 10.2617 13.6807 10.1555 14.3959C10.0493 15.1112 10.103 15.841 10.3128 16.533C10.5225 17.225 10.8831 17.8619 11.3685 18.3978C11.854 18.9337 12.4522 19.3553 13.1201 19.6322ZM9.66437 9.78479C10.3641 9.08508 11.1948 8.53004 12.109 8.15136C13.0232 7.77269 14.003 7.57778 14.9926 7.57778C15.9821 7.57778 16.9619 7.77268 17.8762 8.15136C18.7904 8.53004 19.621 9.08508 20.3208 9.78479C21.0205 10.4845 21.5755 11.3152 21.9542 12.2294C22.3329 13.1436 22.5278 14.1234 22.5278 15.113C22.5278 16.1025 22.3329 17.0824 21.9542 17.9966C21.5755 18.9108 21.0205 19.7415 20.3208 20.4412C18.9076 21.8543 16.991 22.6482 14.9926 22.6482C12.9941 22.6482 11.0775 21.8543 9.66437 20.4412C8.25124 19.028 7.45736 17.1114 7.45736 15.113C7.45736 13.1145 8.25124 11.1979 9.66437 9.78479ZM24.199 8.69996C24.3723 8.5364 24.5112 8.3397 24.6072 8.12153C24.7032 7.90335 24.7544 7.66813 24.7579 7.42979C24.7614 7.19145 24.717 6.95484 24.6274 6.73395C24.5378 6.51307 24.4048 6.31242 24.2362 6.14387C24.0677 5.97532 23.867 5.8423 23.6461 5.75269C23.4252 5.66308 23.1886 5.61869 22.9503 5.62217C22.7119 5.62564 22.4767 5.6769 22.2586 5.77292C22.0404 5.86893 21.8437 6.00774 21.6801 6.18113C21.362 6.51835 21.1879 6.96626 21.1946 7.42979C21.2014 7.89332 21.3885 8.33597 21.7163 8.66377C22.0441 8.99157 22.4868 9.17871 22.9503 9.18547C23.4138 9.19223 23.8617 9.01807 24.199 8.69996Z" fill="#504A58"/>
</svg>
