<svg width="20" height="21" viewBox="0 0 20 21" fill="none" xmlns="http://www.w3.org/2000/svg">
<path d="M8.99805 0.399902C7.72501 0.399902 6.50411 0.905615 5.60394 1.80579C4.70377 2.70596 4.19805 3.92686 4.19805 5.1999C4.19805 6.47294 4.70377 7.69384 5.60394 8.59401C6.50411 9.49419 7.72501 9.9999 8.99805 9.9999C10.2711 9.9999 11.492 9.49419 12.3922 8.59401C13.2923 7.69384 13.7981 6.47294 13.7981 5.1999C13.7981 3.92686 13.2923 2.70596 12.3922 1.80579C11.492 0.905615 10.2711 0.399902 8.99805 0.399902ZM5.39805 5.1999C5.39805 4.24512 5.77734 3.32945 6.45247 2.65432C7.1276 1.97919 8.04327 1.5999 8.99805 1.5999C9.95283 1.5999 10.8685 1.97919 11.5436 2.65432C12.2188 3.32945 12.5981 4.24512 12.5981 5.1999C12.5981 6.15468 12.2188 7.07036 11.5436 7.74549C10.8685 8.42062 9.95283 8.7999 8.99805 8.7999C8.04327 8.7999 7.1276 8.42062 6.45247 7.74549C5.77734 7.07036 5.39805 6.15468 5.39805 5.1999ZM3.00885 11.1999C2.69282 11.1986 2.37964 11.2598 2.08728 11.3798C1.79492 11.4998 1.52914 11.6764 1.30516 11.8994C1.08119 12.1223 0.903435 12.3873 0.782093 12.6791C0.66075 12.971 0.598208 13.2839 0.598053 13.5999C0.598053 15.6291 1.59765 17.1591 3.16005 18.1563C4.41765 18.9579 6.03405 19.4139 7.79805 19.5519V18.3483C6.21645 18.2115 4.83645 17.7999 3.80565 17.1423C2.54565 16.3395 1.79805 15.1719 1.79805 13.5999C1.79805 12.9363 2.33565 12.3999 3.00885 12.3999H11.5361C11.6425 11.9775 11.8107 11.5732 12.0353 11.1999H3.00885ZM9.17685 20.6223C9.23122 20.6791 9.29664 20.7241 9.36908 20.7547C9.44152 20.7852 9.51944 20.8006 9.59805 20.7999H11.9981C12.1126 20.7998 12.2252 20.7709 12.3257 20.7159C12.4056 20.6677 12.4682 20.5955 12.5045 20.5095C12.5424 20.4195 12.5675 20.3245 12.5789 20.2275C12.5914 20.1252 12.5978 20.0222 12.5981 19.9191V19.5999C12.8861 19.5939 13.1105 19.5843 13.2737 19.5723C13.4083 19.5704 13.5378 19.5201 13.6385 19.4307C13.7266 19.3326 13.7764 19.2061 13.7789 19.0743C13.7909 18.9183 13.7981 18.6939 13.7981 18.3999H14.3981C14.5301 18.3999 14.6357 18.3723 14.7173 18.3159C14.7952 18.263 14.8594 18.1923 14.9045 18.1095C14.9501 18.0217 14.9786 17.926 14.9885 17.8275C15.0005 17.7219 15.0077 17.6115 15.0077 17.4999C15.0014 17.4092 14.9982 17.3184 14.9981 17.2275V16.9935C15.2045 17.0691 15.4133 17.1219 15.6257 17.1531C15.8393 17.1843 16.0541 17.1999 16.2737 17.1999C16.7407 17.199 17.2026 17.103 17.6314 16.9177C18.0601 16.7325 18.4466 16.4618 18.7673 16.1223C19.0913 15.7839 19.3445 15.3999 19.5257 14.9691C19.7069 14.5371 19.7981 14.0811 19.7981 13.5999C19.7981 13.0995 19.7045 12.6315 19.5173 12.1935C19.3367 11.7665 19.0755 11.3782 18.7481 11.0499C18.4197 10.7229 18.0314 10.4621 17.6045 10.2819C17.1599 10.0927 16.6812 9.99667 16.1981 9.9999C15.7256 10.0087 15.2587 10.1039 14.8205 10.2807C14.3931 10.4527 14.004 10.7076 13.6757 11.0307C13.3462 11.3542 13.0793 11.7358 12.8885 12.1563C12.6938 12.5859 12.5947 13.0527 12.5981 13.5243C12.5981 13.8183 12.6329 14.1279 12.7013 14.4531L9.17565 17.9775C9.11872 18.032 9.07359 18.0976 9.04304 18.1703C9.01249 18.2429 8.99718 18.3211 8.99805 18.3999V20.1999C8.99805 20.3619 9.05805 20.5035 9.17565 20.6223H9.17685ZM17.7353 12.0627C17.8203 12.1453 17.8874 12.2445 17.9326 12.3541C17.9778 12.4637 18.0001 12.5814 17.9981 12.6999C18.0001 12.8184 17.9778 12.9361 17.9326 13.0457C17.8874 13.1553 17.8203 13.2545 17.7353 13.3371C17.6526 13.4221 17.5535 13.4893 17.4439 13.5345C17.3343 13.5797 17.2166 13.602 17.0981 13.5999C16.9795 13.602 16.8618 13.5797 16.7522 13.5345C16.6426 13.4893 16.5435 13.4221 16.4609 13.3371C16.3758 13.2545 16.3087 13.1553 16.2635 13.0457C16.2183 12.9361 16.196 12.8184 16.1981 12.6999C16.1981 12.4503 16.2857 12.2379 16.4609 12.0627C16.5435 11.9777 16.6426 11.9105 16.7522 11.8653C16.8618 11.8201 16.9795 11.7978 17.0981 11.7999C17.3477 11.7999 17.5601 11.8875 17.7353 12.0627Z" fill="#3D3D3D"/>
</svg>
