<svg width="20" height="21" viewBox="0 0 20 21" fill="none" xmlns="http://www.w3.org/2000/svg">
<path d="M9.0001 0.399902C7.72706 0.399902 6.50616 0.905615 5.60598 1.80579C4.70581 2.70596 4.2001 3.92686 4.2001 5.1999C4.2001 6.47294 4.70581 7.69384 5.60598 8.59401C6.50616 9.49419 7.72706 9.9999 9.0001 9.9999C10.2731 9.9999 11.494 9.49419 12.3942 8.59401C13.2944 7.69384 13.8001 6.47294 13.8001 5.1999C13.8001 3.92686 13.2944 2.70596 12.3942 1.80579C11.494 0.905615 10.2731 0.399902 9.0001 0.399902ZM5.4001 5.1999C5.4001 4.24512 5.77938 3.32945 6.45451 2.65432C7.12964 1.97919 8.04532 1.5999 9.0001 1.5999C9.95488 1.5999 10.8706 1.97919 11.5457 2.65432C12.2208 3.32945 12.6001 4.24512 12.6001 5.1999C12.6001 6.15468 12.2208 7.07036 11.5457 7.74549C10.8706 8.42062 9.95488 8.7999 9.0001 8.7999C8.04532 8.7999 7.12964 8.42062 6.45451 7.74549C5.77938 7.07036 5.4001 6.15468 5.4001 5.1999V5.1999ZM3.0109 11.1999C2.69486 11.1986 2.38168 11.2598 2.08933 11.3798C1.79697 11.4998 1.53118 11.6764 1.30721 11.8994C1.08323 12.1223 0.905479 12.3873 0.784137 12.6791C0.662795 12.971 0.600253 13.2839 0.600098 13.5999C0.600098 15.6291 1.5997 17.1591 3.1621 18.1563C4.4197 18.9579 6.0361 19.4139 7.8001 19.5519V18.3483C6.2185 18.2115 4.8385 17.7999 3.8077 17.1423C2.5477 16.3395 1.8001 15.1719 1.8001 13.5999C1.8001 12.9363 2.3377 12.3999 3.0109 12.3999H11.5381C11.6446 11.9775 11.8128 11.5732 12.0373 11.1999H3.0109ZM9.1789 20.6223C9.23327 20.6791 9.29869 20.7241 9.37112 20.7547C9.44356 20.7852 9.52149 20.8006 9.6001 20.7999H12.0001C12.1146 20.7998 12.2273 20.7709 12.3277 20.7159C12.4076 20.6677 12.4702 20.5955 12.5065 20.5095C12.5445 20.4195 12.5695 20.3245 12.5809 20.2275C12.5935 20.1252 12.5999 20.0222 12.6001 19.9191V19.5999C12.8881 19.5939 13.1125 19.5843 13.2757 19.5723C13.4103 19.5704 13.5398 19.5201 13.6405 19.4307C13.7286 19.3326 13.7785 19.2061 13.7809 19.0743C13.7929 18.9183 13.8001 18.6939 13.8001 18.3999H14.4001C14.5321 18.3999 14.6377 18.3723 14.7193 18.3159C14.7973 18.263 14.8615 18.1923 14.9065 18.1095C14.9521 18.0217 14.9806 17.926 14.9905 17.8275C15.0025 17.7219 15.0097 17.6115 15.0097 17.4999C15.0035 17.4092 15.0003 17.3184 15.0001 17.2275V16.9935C15.2065 17.0691 15.4153 17.1219 15.6277 17.1531C15.8413 17.1843 16.0561 17.1999 16.2757 17.1999C16.7427 17.199 17.2047 17.103 17.6334 16.9177C18.0621 16.7325 18.4486 16.4618 18.7693 16.1223C19.0933 15.7839 19.3465 15.3999 19.5277 14.9691C19.7089 14.5371 19.8001 14.0811 19.8001 13.5999C19.8001 13.0995 19.7065 12.6315 19.5193 12.1935C19.3387 11.7665 19.0775 11.3782 18.7501 11.0499C18.4217 10.7229 18.0335 10.4621 17.6065 10.2819C17.1619 10.0927 16.6833 9.99667 16.2001 9.9999C15.7276 10.0087 15.2607 10.1039 14.8225 10.2807C14.3952 10.4527 14.0061 10.7076 13.6777 11.0307C13.3482 11.3542 13.0813 11.7358 12.8905 12.1563C12.6959 12.5859 12.5968 13.0527 12.6001 13.5243C12.6001 13.8183 12.6349 14.1279 12.7033 14.4531L9.1777 17.9775C9.12077 18.032 9.07563 18.0976 9.04509 18.1703C9.01454 18.2429 8.99923 18.3211 9.0001 18.3999V20.1999C9.0001 20.3619 9.0601 20.5035 9.1777 20.6223H9.1789ZM17.7373 12.0627C17.8223 12.1453 17.8895 12.2445 17.9347 12.3541C17.9799 12.4637 18.0021 12.5814 18.0001 12.6999C18.0021 12.8184 17.9799 12.9361 17.9347 13.0457C17.8895 13.1553 17.8223 13.2545 17.7373 13.3371C17.6547 13.4221 17.5555 13.4893 17.4459 13.5345C17.3363 13.5797 17.2186 13.602 17.1001 13.5999C16.9816 13.602 16.8639 13.5797 16.7543 13.5345C16.6447 13.4893 16.5455 13.4221 16.4629 13.3371C16.3779 13.2545 16.3107 13.1553 16.2655 13.0457C16.2203 12.9361 16.198 12.8184 16.2001 12.6999C16.2001 12.4503 16.2877 12.2379 16.4629 12.0627C16.5455 11.9777 16.6447 11.9105 16.7543 11.8653C16.8639 11.8201 16.9816 11.7978 17.1001 11.7999C17.3497 11.7999 17.5621 11.8875 17.7373 12.0627Z" fill="#3D3D3D"/>
</svg>
