<?xml version="1.0" encoding="utf-8"?>
<!-- Generator: Adobe Illustrator 16.0.0, SVG Export Plug-In . SVG Version: 6.00 Build 0)  -->
<!DOCTYPE svg PUBLIC "-//W3C//DTD SVG 1.1//EN" "http://www.w3.org/Graphics/SVG/1.1/DTD/svg11.dtd" [
	<!ENTITY st0 "clip-path:url(#SVGID_29_);fill:url(#SVGID_30_);">
	<!ENTITY st1 "clip-path:url(#SVGID_44_);fill:url(#SVGID_45_);">
	<!ENTITY st2 "clip-path:url(#SVGID_47_);fill:url(#SVGID_48_);">
	<!ENTITY st3 "clip-path:url(#SVGID_62_);fill:url(#SVGID_63_);">
	<!ENTITY st4 "clip-path:url(#SVGID_2_);fill:url(#SVGID_3_);">
	<!ENTITY st5 "clip-path:url(#SVGID_65_);fill:url(#SVGID_66_);">
	<!ENTITY st6 "clip-path:url(#SVGID_80_);fill:url(#SVGID_81_);">
	<!ENTITY st7 "clip-path:url(#SVGID_68_);fill:url(#SVGID_69_);">
	<!ENTITY st8 "clip-path:url(#SVGID_83_);fill:url(#SVGID_84_);">
	<!ENTITY st9 "clip-path:url(#SVGID_86_);fill:url(#SVGID_87_);">
	<!ENTITY st10 "clip-path:url(#SVGID_89_);fill:url(#SVGID_90_);">
	<!ENTITY st11 "clip-path:url(#SVGID_110_);fill:url(#SVGID_111_);">
	<!ENTITY st12 "clip-path:url(#SVGID_116_);fill:url(#SVGID_117_);">
	<!ENTITY st13 "clip-path:url(#SVGID_101_);fill:url(#SVGID_102_);">
	<!ENTITY st14 "clip-path:url(#SVGID_11_);fill:url(#SVGID_12_);">
	<!ENTITY st15 "clip-path:url(#SVGID_14_);fill:url(#SVGID_15_);">
	<!ENTITY st16 "clip-path:url(#SVGID_107_);fill:url(#SVGID_108_);">
	<!ENTITY st17 "clip-path:url(#SVGID_5_);fill:url(#SVGID_6_);">
	<!ENTITY st18 "clip-path:url(#SVGID_17_);fill:url(#SVGID_18_);">
	<!ENTITY st19 "clip-path:url(#SVGID_32_);fill:url(#SVGID_33_);">
	<!ENTITY st20 "clip-path:url(#SVGID_35_);fill:url(#SVGID_36_);">
	<!ENTITY st21 "clip-path:url(#SVGID_50_);fill:url(#SVGID_51_);">
	<!ENTITY st22 "clip-path:url(#SVGID_38_);fill:url(#SVGID_39_);">
	<!ENTITY st23 "clip-path:url(#SVGID_53_);fill:url(#SVGID_54_);">
	<!ENTITY st24 "clip-path:url(#SVGID_56_);fill:url(#SVGID_57_);">
	<!ENTITY st25 "clip-path:url(#SVGID_71_);fill:url(#SVGID_72_);">
	<!ENTITY st26 "clip-path:url(#SVGID_59_);fill:url(#SVGID_60_);">
	<!ENTITY st27 "fill:#FFFFFF;">
	<!ENTITY st28 "clip-path:url(#SVGID_74_);fill:url(#SVGID_75_);">
	<!ENTITY st29 "clip-path:url(#SVGID_77_);fill:url(#SVGID_78_);">
	<!ENTITY st30 "clip-path:url(#SVGID_92_);fill:url(#SVGID_93_);">
	<!ENTITY st31 "clip-path:url(#SVGID_95_);fill:url(#SVGID_96_);">
	<!ENTITY st32 "clip-path:url(#SVGID_98_);fill:url(#SVGID_99_);">
	<!ENTITY st33 "clip-path:url(#SVGID_113_);fill:url(#SVGID_114_);">
	<!ENTITY st34 "clip-path:url(#SVGID_8_);fill:url(#SVGID_9_);">
	<!ENTITY st35 "clip-path:url(#SVGID_119_);fill:url(#SVGID_120_);">
	<!ENTITY st36 "clip-path:url(#SVGID_104_);fill:url(#SVGID_105_);">
	<!ENTITY st37 "clip-path:url(#SVGID_20_);fill:url(#SVGID_21_);">
	<!ENTITY st38 "clip-path:url(#SVGID_23_);fill:url(#SVGID_24_);">
	<!ENTITY st39 "clip-path:url(#SVGID_26_);fill:url(#SVGID_27_);">
	<!ENTITY st40 "clip-path:url(#SVGID_41_);fill:url(#SVGID_42_);">
]>
<svg version="1.1" id="Layer_1" xmlns="http://www.w3.org/2000/svg" xmlns:xlink="http://www.w3.org/1999/xlink" x="0px" y="0px"
	 width="220px" height="50px" viewBox="0 0 220 50" style="enable-background:new 0 0 220 50;" xml:space="preserve">
<g>
	<defs>
		<path id="SVGID_1_" d="M45.89,5.16c-2.688,0.22-5.933,1.803-7.099,2.172c0.642,0.278,1.268,0.589,1.874,0.931
			c6.721-3.532,7.337-0.643,3.76,2.74c-1.785,1.687-4.612,3.496-8.245,4.694c-12.107,3.989-17.229-7.908-5.998-9.988
			c-5.362,0.18-10.189,2.472-13.674,6.071c3.217-2.693,7.041,2.127,1.452,6.573c-1.765,1.404-4.749,3.047-6.844,4.244
			c-0.779,0.445-1.435,0.828-1.86,1.114c-4.033,2.717-5.145,6.933-1.508,8.719c1.11,0.545,2.655,0.963,4.752,1.148
			c-0.184-0.427-0.353-0.861-0.508-1.301c-1.01-0.183-1.856-0.399-2.499-0.68c-3.085-1.343-0.63-3.592,1.408-4.976
			c0.505-0.345,0.985-0.634,1.349-0.843c6.155-3.554,7.209,0.543,4.968,4.308c-1.107,1.859-2.394,3.927-3.455,5.941
			c-0.659,1.247-1.231,2.474-1.618,3.614c-1.28,3.761,0.016,6.865,3.692,6.562c2.688-0.221,5.933-1.804,7.099-2.173
			c-0.642-0.278-1.268-0.588-1.874-0.931c-6.721,3.53-7.338,0.643-3.76-2.74c1.785-1.687,4.612-3.495,8.245-4.693
			c12.106-3.989,17.228,7.906,5.998,9.987c5.362-0.18,10.189-2.472,13.674-6.071c-3.217,2.692-7.041-2.126-1.452-6.573
			c1.764-1.402,4.749-3.047,6.843-4.245c0.78-0.443,1.436-0.827,1.861-1.113c4.033-2.717,5.145-6.931,1.508-8.717
			c-1.11-0.545-2.656-0.965-4.752-1.149c0.184,0.427,0.353,0.861,0.507,1.302c1.011,0.182,1.856,0.399,2.5,0.678
			c3.084,1.343,0.629,3.593-1.408,4.977c-0.505,0.342-0.986,0.632-1.349,0.842c-6.155,3.554-7.209-0.544-4.968-4.307
			c1.107-1.86,2.394-3.929,3.455-5.941c0.658-1.248,1.23-2.474,1.618-3.615c1.221-3.591,0.097-6.583-3.208-6.583
			C46.217,5.139,46.056,5.146,45.89,5.16"/>
	</defs>
	<clipPath id="SVGID_2_">
		<use xlink:href="#SVGID_1_"  style="overflow:visible;"/>
	</clipPath>
	
		<linearGradient id="SVGID_3_" gradientUnits="userSpaceOnUse" x1="-32.0107" y1="82.001" x2="-31.0111" y2="82.001" gradientTransform="matrix(32.4931 -36.5546 -37.0054 -32.8939 4089.2144 1571.1169)">
		<stop  offset="0" style="stop-color:#CB93FE"/>
		<stop  offset="0.36" style="stop-color:#D18FFE"/>
		<stop  offset="0.83" style="stop-color:#5EBBFE"/>
		<stop  offset="1" style="stop-color:#56BEFD"/>
	</linearGradient>
	<polygon style="&st4;" points="-16.695,28.138 27.727,-21.837 78.422,23.226 34,73.2 	"/>
</g>
<g>
	<defs>
		<path id="SVGID_4_" d="M21.062,43.102c-1.36-0.767-2.621-1.688-3.76-2.74C13.724,43.744,14.341,46.632,21.062,43.102"/>
	</defs>
	<clipPath id="SVGID_5_">
		<use xlink:href="#SVGID_4_"  style="overflow:visible;"/>
	</clipPath>
	
		<linearGradient id="SVGID_6_" gradientUnits="userSpaceOnUse" x1="-31.9121" y1="82.0459" x2="-30.9124" y2="82.0459" gradientTransform="matrix(-5.1685 1.879 1.6294 4.482 -277.7178 -265.5482)">
		<stop  offset="0" style="stop-color:#9152FF"/>
		<stop  offset="1" style="stop-color:#310061"/>
	</linearGradient>
	<polygon style="&st17;" points="23.076,45.9 14.581,48.988 11.71,41.093 20.206,38.005 	"/>
</g>
<g>
	<defs>
		<path id="SVGID_7_" d="M9.493,31.598c0.642,0.28,1.487,0.496,2.497,0.679h0.002c-0.623-1.783-1-3.683-1.091-5.654
			C8.863,28.006,6.408,30.255,9.493,31.598"/>
	</defs>
	<clipPath id="SVGID_8_">
		<use xlink:href="#SVGID_7_"  style="overflow:visible;"/>
	</clipPath>
	
		<linearGradient id="SVGID_9_" gradientUnits="userSpaceOnUse" x1="-31.897" y1="82.0625" x2="-30.8967" y2="82.0625" gradientTransform="matrix(-4.0006 0.4571 0.6062 5.3049 -165.3441 -391.6229)">
		<stop  offset="0" style="stop-color:#422EF2"/>
		<stop  offset="1" style="stop-color:#1F0073"/>
	</linearGradient>
	<polygon style="&st34;" points="12.63,32.203 6.48,32.906 5.771,26.695 11.92,25.992 	"/>
</g>
<g>
	<defs>
		<path id="SVGID_10_" d="M40.665,8.263c1.36,0.766,2.62,1.688,3.76,2.74c2.421-2.289,2.92-4.352,0.908-4.352
			C44.372,6.65,42.837,7.121,40.665,8.263"/>
	</defs>
	<clipPath id="SVGID_11_">
		<use xlink:href="#SVGID_10_"  style="overflow:visible;"/>
	</clipPath>
	
		<linearGradient id="SVGID_12_" gradientUnits="userSpaceOnUse" x1="-32.1118" y1="81.9336" x2="-31.1118" y2="81.9336" gradientTransform="matrix(3.0312 -3.6083 -3.7051 -3.1126 443.2441 149.973)">
		<stop  offset="0" style="stop-color:#000BA8"/>
		<stop  offset="1" style="stop-color:#11002B"/>
	</linearGradient>
	<polygon style="&st14;" points="38.521,9.202 43.429,3.36 49.489,8.451 44.581,14.293 	"/>
</g>
<g>
	<defs>
		<path id="SVGID_13_" d="M49.734,19.088c0.623,1.783,1.001,3.682,1.092,5.655c2.037-1.384,4.492-3.634,1.408-4.977
			C51.591,19.487,50.745,19.27,49.734,19.088z"/>
	</defs>
	<clipPath id="SVGID_14_">
		<use xlink:href="#SVGID_13_"  style="overflow:visible;"/>
	</clipPath>
	
		<linearGradient id="SVGID_15_" gradientUnits="userSpaceOnUse" x1="-32.1196" y1="82.0098" x2="-31.1199" y2="82.0098" gradientTransform="matrix(2.8309 -3.3695 -3.2678 -2.7455 409.696 140.9317)">
		<stop  offset="0" style="stop-color:#000BA8"/>
		<stop  offset="1" style="stop-color:#11002B"/>
	</linearGradient>
	<polygon style="&st15;" points="46.949,22.403 52.044,16.338 58.103,21.428 53.007,27.493 	"/>
</g>
<g>
	<defs>
		<path id="SVGID_16_" d="M25.547,35.668c-3.633,1.198-6.46,3.007-8.245,4.693c1.139,1.052,2.4,1.974,3.76,2.74
			c0.606,0.343,1.232,0.652,1.874,0.931c2.43,1.052,5.111,1.634,7.927,1.634c0.228,0,0.455-0.004,0.682-0.011
			c9.637-1.786,7.231-10.799-1.295-10.799C28.84,34.856,27.264,35.102,25.547,35.668"/>
	</defs>
	<clipPath id="SVGID_17_">
		<use xlink:href="#SVGID_16_"  style="overflow:visible;"/>
	</clipPath>
	
		<linearGradient id="SVGID_18_" gradientUnits="userSpaceOnUse" x1="-31.978" y1="82.0625" x2="-30.978" y2="82.0625" gradientTransform="matrix(-20.5286 10.7531 8.8567 16.9082 -1345.1017 -1008.0745)">
		<stop  offset="0" style="stop-color:#653BCF"/>
		<stop  offset="0.42" style="stop-color:#855ADB"/>
		<stop  offset="0.81" style="stop-color:#B897FC"/>
		<stop  offset="1" style="stop-color:#BC9CFF"/>
	</linearGradient>
	<polygon style="&st18;" points="45.625,43.339 22.443,55.481 12.859,37.184 36.041,25.041 	"/>
</g>
<g>
	<defs>
		<path id="SVGID_19_" d="M37.988,18.433c-9.165,6.859-2.148,11.993,5.971,10.678c5.799-0.938,11.823-5.167,11.914-8.385
			c-0.339-0.713-0.96-1.332-1.894-1.791c-1.11-0.545-2.656-0.965-4.752-1.149c0.184,0.427,0.353,0.861,0.507,1.302
			c1.011,0.182,1.856,0.399,2.5,0.678c3.084,1.343,0.629,3.593-1.408,4.977c-0.505,0.342-0.986,0.632-1.349,0.842
			c-6.155,3.554-7.209-0.544-4.968-4.307c1.107-1.86,2.394-3.929,3.455-5.941c0.658-1.248,1.23-2.474,1.618-3.615
			c0.9-2.647,0.526-4.968-1.056-6.005C50.796,9.494,43.308,14.451,37.988,18.433"/>
	</defs>
	<clipPath id="SVGID_20_">
		<use xlink:href="#SVGID_19_"  style="overflow:visible;"/>
	</clipPath>
	
		<linearGradient id="SVGID_21_" gradientUnits="userSpaceOnUse" x1="-32.0161" y1="82.002" x2="-31.0161" y2="82.002" gradientTransform="matrix(20.7167 -25.497 -25.1729 -20.4534 2760.7109 890.2137)">
		<stop  offset="0" style="stop-color:#CFD5FF"/>
		<stop  offset="0.78" style="stop-color:#61D2FF"/>
		<stop  offset="1" style="stop-color:#57D8FF"/>
	</linearGradient>
	<polygon style="&st37;" points="16.73,20.6 39.58,-7.521 67.966,15.542 45.116,43.665 	"/>
</g>
<g>
	<defs>
		<path id="SVGID_22_" d="M17.767,22.253c-5.798,0.938-11.822,5.166-11.913,8.386c0.338,0.712,0.959,1.332,1.894,1.791
			c1.11,0.545,2.655,0.963,4.752,1.148c-0.184-0.427-0.353-0.861-0.508-1.301c-1.01-0.183-1.856-0.399-2.499-0.68
			c-3.085-1.343-0.63-3.592,1.408-4.976c0.505-0.345,0.985-0.634,1.349-0.843c6.155-3.554,7.209,0.543,4.968,4.308
			c-1.107,1.859-2.394,3.927-3.455,5.941c-0.659,1.247-1.231,2.474-1.618,3.614c-0.901,2.646-0.526,4.968,1.056,6.006
			c-2.27-3.778,5.218-8.735,10.537-12.717c8.193-6.132,3.453-10.884-3.444-10.885C19.476,22.047,18.628,22.114,17.767,22.253"/>
	</defs>
	<clipPath id="SVGID_23_">
		<use xlink:href="#SVGID_22_"  style="overflow:visible;"/>
	</clipPath>
	
		<linearGradient id="SVGID_24_" gradientUnits="userSpaceOnUse" x1="-31.9854" y1="81.9805" x2="-30.9854" y2="81.9805" gradientTransform="matrix(-10.0612 30.9571 26.2344 8.5263 -2448.7874 310.1231)">
		<stop  offset="0" style="stop-color:#DAB4FF"/>
		<stop  offset="1" style="stop-color:#E5CFFE"/>
	</linearGradient>
	<polygon style="&st38;" points="38.869,24.302 29.439,53.313 -1.083,43.394 8.345,14.381 	"/>
</g>
<g>
	<defs>
		<path id="SVGID_25_" d="M43.767,33.011c-5.589,4.447-1.765,9.266,1.452,6.573c2.808-2.898,4.745-6.644,5.391-10.817
			C48.516,29.964,45.531,31.608,43.767,33.011"/>
	</defs>
	<clipPath id="SVGID_26_">
		<use xlink:href="#SVGID_25_"  style="overflow:visible;"/>
	</clipPath>
	
		<linearGradient id="SVGID_27_" gradientUnits="userSpaceOnUse" x1="-32.0327" y1="81.998" x2="-31.0323" y2="81.998" gradientTransform="matrix(12.3335 -10.5068 -10.4581 -12.2764 1292.1057 709.7734)">
		<stop  offset="0" style="stop-color:#BA28EB"/>
		<stop  offset="0.28" style="stop-color:#9F38EC"/>
		<stop  offset="0.78" style="stop-color:#1C87F1"/>
		<stop  offset="1" style="stop-color:#029DF7"/>
	</linearGradient>
	<polygon style="&st39;" points="31.509,34.448 45.382,22.63 57.279,36.595 43.406,48.413 	"/>
</g>
<g>
	<defs>
		<path id="SVGID_28_" d="M30.072,34.858c8.671-0.127,11.177,9,1.473,10.797c4.259-0.144,8.181-1.618,11.361-4.023
			c-2.34,1.349-2.904-0.923-4.57-3.196c-1.319-1.8-3.332-3.6-7.464-3.6C30.613,34.836,30.347,34.843,30.072,34.858"/>
	</defs>
	<clipPath id="SVGID_29_">
		<use xlink:href="#SVGID_28_"  style="overflow:visible;"/>
	</clipPath>
	
		<linearGradient id="SVGID_30_" gradientUnits="userSpaceOnUse" x1="-31.9639" y1="81.9873" x2="-30.9643" y2="81.9873" gradientTransform="matrix(-4.2928 12.5196 12.805 4.3906 -1148.4473 74.1924)">
		<stop  offset="0" style="stop-color:#FCBFFF"/>
		<stop  offset="0.31" style="stop-color:#FBBEFF"/>
		<stop  offset="1" style="stop-color:#DC9CFF"/>
	</linearGradient>
	<polygon style="&st0;" points="46.258,35.88 41.556,49.593 26.72,44.506 31.422,30.793 	"/>
</g>
<g>
	<defs>
		<path id="SVGID_31_" d="M18.821,9.732c2.339-1.348,2.903,0.925,4.569,3.196c1.402,1.913,3.585,3.826,8.265,3.579
			c-8.672,0.127-11.177-9-1.473-10.798C25.923,5.852,22.001,7.328,18.821,9.732"/>
	</defs>
	<clipPath id="SVGID_32_">
		<use xlink:href="#SVGID_31_"  style="overflow:visible;"/>
	</clipPath>
	
		<linearGradient id="SVGID_33_" gradientUnits="userSpaceOnUse" x1="-31.9653" y1="81.9902" x2="-30.9653" y2="81.9902" gradientTransform="matrix(-9.5434 11.7471 11.8565 9.6323 -1247.1069 -408.9694)">
		<stop  offset="0" style="stop-color:#CFD5FF"/>
		<stop  offset="0.78" style="stop-color:#61D2FF"/>
		<stop  offset="1" style="stop-color:#57D8FF"/>
	</linearGradient>
	<polygon style="&st19;" points="37.061,10.101 26.552,23.035 13.416,12.363 23.924,-0.572 	"/>
</g>
<g>
	<defs>
		<path id="SVGID_34_" d="M30.182,5.709c-9.704,1.798-7.199,10.925,1.473,10.798c1.364-0.02,2.88-0.269,4.525-0.81
			c3.633-1.198,6.46-3.007,8.245-4.694c-1.14-1.052-2.4-1.974-3.76-2.74c-0.606-0.342-1.232-0.653-1.874-0.931
			c-2.431-1.051-5.111-1.633-7.928-1.633C30.636,5.699,30.408,5.701,30.182,5.709"/>
	</defs>
	<clipPath id="SVGID_35_">
		<use xlink:href="#SVGID_34_"  style="overflow:visible;"/>
	</clipPath>
	
		<linearGradient id="SVGID_36_" gradientUnits="userSpaceOnUse" x1="-31.9746" y1="81.998" x2="-30.9746" y2="81.998" gradientTransform="matrix(-13.1787 16.2204 16.6163 13.5004 -1744.1216 -586.1864)">
		<stop  offset="0" style="stop-color:#8FDCFF"/>
		<stop  offset="0.24" style="stop-color:#3BB7FF"/>
		<stop  offset="0.77" style="stop-color:#2B62D0"/>
		<stop  offset="1" style="stop-color:#0037AD"/>
	</linearGradient>
	<polygon style="&st20;" points="49.777,10.047 34.903,28.354 15.126,12.286 30,-6.021 	"/>
</g>
<g>
	<defs>
		<path id="SVGID_37_" d="M44.509,21.278c-2.241,3.763-1.187,7.861,4.968,4.307c0.363-0.21,0.844-0.5,1.349-0.842
			c-0.091-1.973-0.469-3.872-1.092-5.655c-0.154-0.441-0.323-0.875-0.507-1.302c-0.365-0.848-0.787-1.666-1.263-2.449
			C46.903,17.349,45.616,19.418,44.509,21.278"/>
	</defs>
	<clipPath id="SVGID_38_">
		<use xlink:href="#SVGID_37_"  style="overflow:visible;"/>
	</clipPath>
	
		<linearGradient id="SVGID_39_" gradientUnits="userSpaceOnUse" x1="-31.9707" y1="81.96" x2="-30.9707" y2="81.96" gradientTransform="matrix(-1.2581 13.8394 8.389 0.7626 -680.5034 394.1314)">
		<stop  offset="0" style="stop-color:#8FDCFF"/>
		<stop  offset="0.24" style="stop-color:#3BB7FF"/>
		<stop  offset="0.77" style="stop-color:#2B62D0"/>
		<stop  offset="1" style="stop-color:#0037AD"/>
	</linearGradient>
	<polygon style="&st22;" points="52.07,15.45 50.756,29.91 41.023,29.026 42.338,14.565 	"/>
</g>
<g>
	<defs>
		<path id="SVGID_40_" d="M25.547,35.668c-3.633,1.198-6.46,3.007-8.245,4.693c0.716,0.662,1.48,1.271,2.286,1.822
			c8.137-6.768,20.235-2.755,16.433,1.588c3.909-3.234,0.998-8.914-5.771-8.915C28.84,34.856,27.264,35.102,25.547,35.668"/>
	</defs>
	<clipPath id="SVGID_41_">
		<use xlink:href="#SVGID_40_"  style="overflow:visible;"/>
	</clipPath>
	
		<linearGradient id="SVGID_42_" gradientUnits="userSpaceOnUse" x1="-31.9819" y1="82.0098" x2="-30.9819" y2="82.0098" gradientTransform="matrix(-16.6839 23.7411 23.2057 16.3076 -2400.0857 -550.1635)">
		<stop  offset="0" style="stop-color:#1B003D"/>
		<stop  offset="0.13" style="stop-color:#1F054F"/>
		<stop  offset="0.42" style="stop-color:#3822B7"/>
		<stop  offset="0.67" style="stop-color:#A281EF"/>
		<stop  offset="1" style="stop-color:#B18FF7"/>
	</linearGradient>
	<polygon style="&st40;" points="44.124,37.803 32.45,54.416 13.108,40.824 24.783,24.211 	"/>
</g>
<g>
	<defs>
		<path id="SVGID_43_" d="M43.767,33.011c-3.229,2.569-3.317,5.262-2.193,6.56c0.738-3.514,5.298-6.18,8.265-7.603
			c0.342-1.032,0.601-2.103,0.771-3.202C48.516,29.964,45.531,31.608,43.767,33.011"/>
	</defs>
	<clipPath id="SVGID_44_">
		<use xlink:href="#SVGID_43_"  style="overflow:visible;"/>
	</clipPath>
	
		<linearGradient id="SVGID_45_" gradientUnits="userSpaceOnUse" x1="-31.9653" y1="81.9795" x2="-30.9653" y2="81.9795" gradientTransform="matrix(-4.1423 12.978 11.2505 3.5909 -1007.0944 148.0738)">
		<stop  offset="0" style="stop-color:#002EAD"/>
		<stop  offset="0.74" style="stop-color:#8825DD"/>
		<stop  offset="1" style="stop-color:#8F24E0"/>
	</linearGradient>
	<polygon style="&st1;" points="53.74,29.765 49.67,42.513 37.32,38.571 41.389,25.823 	"/>
</g>
<g>
	<defs>
		<path id="SVGID_46_" d="M44.509,21.278c-2.044,3.431-1.347,7.14,3.455,5.076c-3.074-0.654-0.786-5.773,1.173-8.774
			c-0.344-0.774-0.736-1.523-1.173-2.242C46.903,17.349,45.616,19.418,44.509,21.278"/>
	</defs>
	<clipPath id="SVGID_47_">
		<use xlink:href="#SVGID_46_"  style="overflow:visible;"/>
	</clipPath>
	
		<linearGradient id="SVGID_48_" gradientUnits="userSpaceOnUse" x1="-31.9692" y1="81.9492" x2="-30.9692" y2="81.9492" gradientTransform="matrix(-1.19 13.0821 6.6928 0.6088 -540.0477 382.8951)">
		<stop  offset="0" style="stop-color:#30A1F2"/>
		<stop  offset="0.56" style="stop-color:#2B62D0"/>
		<stop  offset="1" style="stop-color:#0037AD"/>
	</linearGradient>
	<polygon style="&st2;" points="50.317,15.444 49.082,29.02 41.285,28.311 42.52,14.735 	"/>
</g>
<g>
	<defs>
		<path id="SVGID_49_" d="M16.508,11.78c-2.808,2.899-4.746,6.645-5.391,10.817c2.094-1.197,5.078-2.84,6.843-4.243
			c4.47-3.556,2.919-7.351,0.474-7.352C17.821,11.002,17.152,11.241,16.508,11.78"/>
	</defs>
	<clipPath id="SVGID_50_">
		<use xlink:href="#SVGID_49_"  style="overflow:visible;"/>
	</clipPath>
	
		<linearGradient id="SVGID_51_" gradientUnits="userSpaceOnUse" x1="-32.0332" y1="82.0264" x2="-31.0337" y2="82.0264" gradientTransform="matrix(5.723 -13.5918 -11.9526 -5.0328 1177.5461 1.3187)">
		<stop  offset="0" style="stop-color:#266BFF"/>
		<stop  offset="1" style="stop-color:#0022A8"/>
	</linearGradient>
	<polygon style="&st21;" points="6.97,20.851 12.821,6.956 26.577,12.748 20.726,26.644 	"/>
</g>
<g>
	<defs>
		<path id="SVGID_52_" d="M12.25,25.779c-0.364,0.209-0.844,0.499-1.349,0.843c0.091,1.973,0.469,3.872,1.091,5.655
			c0.155,0.439,0.324,0.874,0.508,1.301c0.365,0.849,0.787,1.666,1.263,2.45c1.061-2.014,2.348-4.082,3.455-5.941
			c1.635-2.747,1.516-5.67-1.059-5.67C15.205,24.416,13.914,24.818,12.25,25.779"/>
	</defs>
	<clipPath id="SVGID_53_">
		<use xlink:href="#SVGID_52_"  style="overflow:visible;"/>
	</clipPath>
	
		<linearGradient id="SVGID_54_" gradientUnits="userSpaceOnUse" x1="-32.0376" y1="81.9746" x2="-31.0376" y2="81.9746" gradientTransform="matrix(8.3682 -11.1573 -10.6281 -7.9713 1149.9246 331.9257)">
		<stop  offset="0" style="stop-color:#8F88F8"/>
		<stop  offset="1" style="stop-color:#4859F2"/>
	</linearGradient>
	<polygon style="&st23;" points="5.327,31.848 13.764,20.599 24.427,28.597 15.99,39.845 	"/>
</g>
<g>
	<defs>
		<path id="SVGID_55_" d="M12.25,25.779c-0.364,0.209-0.844,0.499-1.349,0.843c0.043,0.924,0.148,1.832,0.313,2.719
			c2.095-1.472,6.052-3.174,6.844-1.136c0.611-2.053,0.085-3.788-1.899-3.789C15.205,24.416,13.914,24.817,12.25,25.779"/>
	</defs>
	<clipPath id="SVGID_56_">
		<use xlink:href="#SVGID_55_"  style="overflow:visible;"/>
	</clipPath>
	
		<linearGradient id="SVGID_57_" gradientUnits="userSpaceOnUse" x1="-31.9297" y1="82.0918" x2="-30.9297" y2="82.0918" gradientTransform="matrix(-6.0324 4.3869 4.1176 5.662 -512.9481 -299.9616)">
		<stop  offset="0" style="stop-color:#060FB8"/>
		<stop  offset="0.14" style="stop-color:#0F18BD"/>
		<stop  offset="0.75" style="stop-color:#6A6EF3"/>
		<stop  offset="1" style="stop-color:#7074F6"/>
	</linearGradient>
	<polygon style="&st24;" points="21.012,27.638 13.588,33.036 8.559,26.119 15.982,20.721 	"/>
</g>
<g>
	<defs>
		<path id="SVGID_58_" d="M16.508,11.78c-0.332,0.342-0.65,0.695-0.957,1.059c2.838-1.633,4.963,3.169,2.409,5.515
			c4.47-3.556,2.919-7.351,0.474-7.352C17.821,11.002,17.152,11.241,16.508,11.78"/>
	</defs>
	<clipPath id="SVGID_59_">
		<use xlink:href="#SVGID_58_"  style="overflow:visible;"/>
	</clipPath>
	
		<linearGradient id="SVGID_60_" gradientUnits="userSpaceOnUse" x1="-31.936" y1="82.0586" x2="-30.9364" y2="82.0586" gradientTransform="matrix(-6.5301 5.0226 5.1108 6.6447 -606.1815 -372.2909)">
		<stop  offset="0" style="stop-color:#001A69"/>
		<stop  offset="0.69" style="stop-color:#0832BA"/>
		<stop  offset="1" style="stop-color:#0933BC"/>
	</linearGradient>
	<polygon style="&st26;" points="25.983,15.621 18.108,21.678 11.998,13.735 19.873,7.678 	"/>
</g>
<g>
	<defs>
		<path id="SVGID_61_" d="M45.89,5.16c-2.688,0.22-5.933,1.803-7.099,2.172c0.642,0.278,1.268,0.589,1.874,0.931
			c6.721-3.532,7.337-0.643,3.76,2.74c-1.785,1.687-4.612,3.496-8.245,4.694c-12.107,3.989-17.229-7.908-5.998-9.988
			c-5.362,0.18-10.189,2.472-13.674,6.071c3.217-2.693,7.041,2.127,1.452,6.573c-1.765,1.404-4.749,3.047-6.844,4.244
			c-0.779,0.445-1.435,0.828-1.86,1.114c-4.033,2.717-5.145,6.933-1.508,8.719c1.11,0.545,2.655,0.963,4.752,1.148
			c-0.184-0.427-0.353-0.861-0.508-1.301c-1.01-0.183-1.856-0.399-2.499-0.68c-3.085-1.343-0.63-3.592,1.408-4.976
			c0.505-0.345,0.985-0.634,1.349-0.843c6.155-3.554,7.209,0.543,4.968,4.308c-1.107,1.859-2.394,3.927-3.455,5.941
			c-0.659,1.247-1.231,2.474-1.618,3.614c-1.28,3.761,0.016,6.865,3.692,6.562c2.688-0.221,5.933-1.804,7.099-2.173
			c-0.642-0.278-1.268-0.588-1.874-0.931c-6.721,3.53-7.338,0.643-3.76-2.74c1.785-1.687,4.612-3.495,8.245-4.693
			c12.106-3.989,17.228,7.906,5.998,9.987c5.362-0.18,10.189-2.472,13.674-6.071c-3.217,2.692-7.041-2.126-1.452-6.573
			c1.764-1.402,4.749-3.047,6.843-4.245c0.78-0.443,1.436-0.827,1.861-1.113c4.033-2.717,5.145-6.931,1.508-8.717
			c-1.11-0.545-2.656-0.965-4.752-1.149c0.184,0.427,0.353,0.861,0.507,1.302c1.011,0.182,1.856,0.399,2.5,0.678
			c3.084,1.343,0.629,3.593-1.408,4.977c-0.505,0.342-0.986,0.632-1.349,0.842c-6.155,3.554-7.209-0.544-4.968-4.307
			c1.107-1.86,2.394-3.929,3.455-5.941c0.658-1.248,1.23-2.474,1.618-3.615c1.221-3.591,0.097-6.583-3.208-6.583
			C46.217,5.139,46.056,5.146,45.89,5.16"/>
	</defs>
	<clipPath id="SVGID_62_">
		<use xlink:href="#SVGID_61_"  style="overflow:visible;"/>
	</clipPath>
	
		<linearGradient id="SVGID_63_" gradientUnits="userSpaceOnUse" x1="-32.0107" y1="82.001" x2="-31.0111" y2="82.001" gradientTransform="matrix(32.4931 -36.5546 -37.0054 -32.8939 4089.2144 1571.1169)">
		<stop  offset="0" style="stop-color:#CB93FE"/>
		<stop  offset="0.36" style="stop-color:#D18FFE"/>
		<stop  offset="0.83" style="stop-color:#5EBBFE"/>
		<stop  offset="1" style="stop-color:#56BEFD"/>
	</linearGradient>
	<polygon style="&st3;" points="-16.695,28.138 27.727,-21.837 78.422,23.226 34,73.2 	"/>
</g>
<g>
	<defs>
		<path id="SVGID_64_" d="M21.062,43.102c-1.36-0.767-2.621-1.688-3.76-2.74C13.724,43.744,14.341,46.632,21.062,43.102"/>
	</defs>
	<clipPath id="SVGID_65_">
		<use xlink:href="#SVGID_64_"  style="overflow:visible;"/>
	</clipPath>
	
		<linearGradient id="SVGID_66_" gradientUnits="userSpaceOnUse" x1="-31.9121" y1="82.0459" x2="-30.9124" y2="82.0459" gradientTransform="matrix(-5.1685 1.879 1.6294 4.482 -277.7178 -265.5482)">
		<stop  offset="0" style="stop-color:#9152FF"/>
		<stop  offset="1" style="stop-color:#310061"/>
	</linearGradient>
	<polygon style="&st5;" points="23.076,45.9 14.581,48.988 11.71,41.093 20.206,38.005 	"/>
</g>
<g>
	<defs>
		<path id="SVGID_67_" d="M9.493,31.598c0.642,0.28,1.487,0.496,2.497,0.679h0.002c-0.623-1.783-1-3.683-1.091-5.654
			C8.863,28.006,6.408,30.255,9.493,31.598"/>
	</defs>
	<clipPath id="SVGID_68_">
		<use xlink:href="#SVGID_67_"  style="overflow:visible;"/>
	</clipPath>
	
		<linearGradient id="SVGID_69_" gradientUnits="userSpaceOnUse" x1="-31.897" y1="82.0625" x2="-30.8967" y2="82.0625" gradientTransform="matrix(-4.0006 0.4571 0.6062 5.3049 -165.3441 -391.6229)">
		<stop  offset="0" style="stop-color:#422EF2"/>
		<stop  offset="1" style="stop-color:#1F0073"/>
	</linearGradient>
	<polygon style="&st7;" points="12.63,32.203 6.48,32.906 5.771,26.695 11.92,25.992 	"/>
</g>
<g>
	<defs>
		<path id="SVGID_70_" d="M40.665,8.263c1.36,0.766,2.62,1.688,3.76,2.74c2.421-2.289,2.92-4.352,0.908-4.352
			C44.372,6.65,42.837,7.121,40.665,8.263"/>
	</defs>
	<clipPath id="SVGID_71_">
		<use xlink:href="#SVGID_70_"  style="overflow:visible;"/>
	</clipPath>
	
		<linearGradient id="SVGID_72_" gradientUnits="userSpaceOnUse" x1="-32.1118" y1="81.9336" x2="-31.1118" y2="81.9336" gradientTransform="matrix(3.0312 -3.6083 -3.7051 -3.1126 443.2441 149.973)">
		<stop  offset="0" style="stop-color:#000BA8"/>
		<stop  offset="1" style="stop-color:#11002B"/>
	</linearGradient>
	<polygon style="&st25;" points="38.521,9.202 43.429,3.36 49.489,8.451 44.581,14.293 	"/>
</g>
<g>
	<defs>
		<path id="SVGID_73_" d="M49.734,19.088c0.623,1.783,1.001,3.682,1.092,5.655c2.037-1.384,4.492-3.634,1.408-4.977
			C51.591,19.487,50.745,19.27,49.734,19.088z"/>
	</defs>
	<clipPath id="SVGID_74_">
		<use xlink:href="#SVGID_73_"  style="overflow:visible;"/>
	</clipPath>
	
		<linearGradient id="SVGID_75_" gradientUnits="userSpaceOnUse" x1="-32.1196" y1="82.0098" x2="-31.1199" y2="82.0098" gradientTransform="matrix(2.8309 -3.3695 -3.2678 -2.7455 409.696 140.9317)">
		<stop  offset="0" style="stop-color:#000BA8"/>
		<stop  offset="1" style="stop-color:#11002B"/>
	</linearGradient>
	<polygon style="&st28;" points="46.949,22.403 52.044,16.338 58.103,21.428 53.007,27.493 	"/>
</g>
<g>
	<defs>
		<path id="SVGID_76_" d="M25.547,35.668c-3.633,1.198-6.46,3.007-8.245,4.693c1.139,1.052,2.4,1.974,3.76,2.74
			c0.606,0.343,1.232,0.652,1.874,0.931c2.43,1.052,5.111,1.634,7.927,1.634c0.228,0,0.455-0.004,0.682-0.011
			c9.637-1.786,7.231-10.799-1.295-10.799C28.84,34.856,27.264,35.102,25.547,35.668"/>
	</defs>
	<clipPath id="SVGID_77_">
		<use xlink:href="#SVGID_76_"  style="overflow:visible;"/>
	</clipPath>
	
		<linearGradient id="SVGID_78_" gradientUnits="userSpaceOnUse" x1="-31.978" y1="82.0625" x2="-30.978" y2="82.0625" gradientTransform="matrix(-20.5286 10.7531 8.8567 16.9082 -1345.1017 -1008.0745)">
		<stop  offset="0" style="stop-color:#653BCF"/>
		<stop  offset="0.42" style="stop-color:#855ADB"/>
		<stop  offset="0.81" style="stop-color:#B897FC"/>
		<stop  offset="1" style="stop-color:#BC9CFF"/>
	</linearGradient>
	<polygon style="&st29;" points="45.625,43.339 22.443,55.481 12.859,37.184 36.041,25.041 	"/>
</g>
<g>
	<defs>
		<path id="SVGID_79_" d="M37.988,18.433c-9.165,6.859-2.148,11.993,5.971,10.678c5.799-0.938,11.823-5.167,11.914-8.385
			c-0.339-0.713-0.96-1.332-1.894-1.791c-1.11-0.545-2.656-0.965-4.752-1.149c0.184,0.427,0.353,0.861,0.507,1.302
			c1.011,0.182,1.856,0.399,2.5,0.678c3.084,1.343,0.629,3.593-1.408,4.977c-0.505,0.342-0.986,0.632-1.349,0.842
			c-6.155,3.554-7.209-0.544-4.968-4.307c1.107-1.86,2.394-3.929,3.455-5.941c0.658-1.248,1.23-2.474,1.618-3.615
			c0.9-2.647,0.526-4.968-1.056-6.005C50.796,9.494,43.308,14.451,37.988,18.433"/>
	</defs>
	<clipPath id="SVGID_80_">
		<use xlink:href="#SVGID_79_"  style="overflow:visible;"/>
	</clipPath>
	
		<linearGradient id="SVGID_81_" gradientUnits="userSpaceOnUse" x1="-32.0161" y1="82.002" x2="-31.0161" y2="82.002" gradientTransform="matrix(20.7167 -25.497 -25.1729 -20.4534 2760.7109 890.2137)">
		<stop  offset="0" style="stop-color:#CFD5FF"/>
		<stop  offset="0.78" style="stop-color:#61D2FF"/>
		<stop  offset="1" style="stop-color:#57D8FF"/>
	</linearGradient>
	<polygon style="&st6;" points="16.73,20.6 39.58,-7.521 67.966,15.542 45.116,43.665 	"/>
</g>
<g>
	<defs>
		<path id="SVGID_82_" d="M17.767,22.253c-5.798,0.938-11.822,5.166-11.913,8.386c0.338,0.712,0.959,1.332,1.894,1.791
			c1.11,0.545,2.655,0.963,4.752,1.148c-0.184-0.427-0.353-0.861-0.508-1.301c-1.01-0.183-1.856-0.399-2.499-0.68
			c-3.085-1.343-0.63-3.592,1.408-4.976c0.505-0.345,0.985-0.634,1.349-0.843c6.155-3.554,7.209,0.543,4.968,4.308
			c-1.107,1.859-2.394,3.927-3.455,5.941c-0.659,1.247-1.231,2.474-1.618,3.614c-0.901,2.646-0.526,4.968,1.056,6.006
			c-2.27-3.778,5.218-8.735,10.537-12.717c8.193-6.132,3.453-10.884-3.444-10.885C19.476,22.047,18.628,22.114,17.767,22.253"/>
	</defs>
	<clipPath id="SVGID_83_">
		<use xlink:href="#SVGID_82_"  style="overflow:visible;"/>
	</clipPath>
	
		<linearGradient id="SVGID_84_" gradientUnits="userSpaceOnUse" x1="-31.9854" y1="81.9805" x2="-30.9854" y2="81.9805" gradientTransform="matrix(-10.0612 30.9571 26.2344 8.5263 -2448.7874 310.1231)">
		<stop  offset="0" style="stop-color:#DAB4FF"/>
		<stop  offset="1" style="stop-color:#E5CFFE"/>
	</linearGradient>
	<polygon style="&st8;" points="38.869,24.302 29.439,53.313 -1.083,43.394 8.345,14.381 	"/>
</g>
<g>
	<defs>
		<path id="SVGID_85_" d="M43.767,33.011c-5.589,4.447-1.765,9.266,1.452,6.573c2.808-2.898,4.745-6.644,5.391-10.817
			C48.516,29.964,45.531,31.608,43.767,33.011"/>
	</defs>
	<clipPath id="SVGID_86_">
		<use xlink:href="#SVGID_85_"  style="overflow:visible;"/>
	</clipPath>
	
		<linearGradient id="SVGID_87_" gradientUnits="userSpaceOnUse" x1="-32.0327" y1="81.998" x2="-31.0323" y2="81.998" gradientTransform="matrix(12.3335 -10.5068 -10.4581 -12.2764 1292.1057 709.7734)">
		<stop  offset="0" style="stop-color:#BA28EB"/>
		<stop  offset="0.28" style="stop-color:#9F38EC"/>
		<stop  offset="0.78" style="stop-color:#1C87F1"/>
		<stop  offset="1" style="stop-color:#029DF7"/>
	</linearGradient>
	<polygon style="&st9;" points="31.509,34.448 45.382,22.63 57.279,36.595 43.406,48.413 	"/>
</g>
<g>
	<defs>
		<path id="SVGID_88_" d="M30.072,34.858c8.671-0.127,11.177,9,1.473,10.797c4.259-0.144,8.181-1.618,11.361-4.023
			c-2.34,1.349-2.904-0.923-4.57-3.196c-1.319-1.8-3.332-3.6-7.464-3.6C30.613,34.836,30.347,34.843,30.072,34.858"/>
	</defs>
	<clipPath id="SVGID_89_">
		<use xlink:href="#SVGID_88_"  style="overflow:visible;"/>
	</clipPath>
	
		<linearGradient id="SVGID_90_" gradientUnits="userSpaceOnUse" x1="-31.9639" y1="81.9873" x2="-30.9643" y2="81.9873" gradientTransform="matrix(-4.2928 12.5196 12.805 4.3906 -1148.4473 74.1924)">
		<stop  offset="0" style="stop-color:#FCBFFF"/>
		<stop  offset="0.31" style="stop-color:#FBBEFF"/>
		<stop  offset="1" style="stop-color:#DC9CFF"/>
	</linearGradient>
	<polygon style="&st10;" points="46.258,35.88 41.556,49.593 26.72,44.506 31.422,30.793 	"/>
</g>
<g>
	<defs>
		<path id="SVGID_91_" d="M18.821,9.732c2.339-1.348,2.903,0.925,4.569,3.196c1.402,1.913,3.585,3.826,8.265,3.579
			c-8.672,0.127-11.177-9-1.473-10.798C25.923,5.852,22.001,7.328,18.821,9.732"/>
	</defs>
	<clipPath id="SVGID_92_">
		<use xlink:href="#SVGID_91_"  style="overflow:visible;"/>
	</clipPath>
	
		<linearGradient id="SVGID_93_" gradientUnits="userSpaceOnUse" x1="-31.9653" y1="81.9902" x2="-30.9653" y2="81.9902" gradientTransform="matrix(-9.5434 11.7471 11.8565 9.6323 -1247.1069 -408.9694)">
		<stop  offset="0" style="stop-color:#CFD5FF"/>
		<stop  offset="0.78" style="stop-color:#61D2FF"/>
		<stop  offset="1" style="stop-color:#57D8FF"/>
	</linearGradient>
	<polygon style="&st30;" points="37.061,10.101 26.552,23.035 13.416,12.363 23.924,-0.572 	"/>
</g>
<g>
	<defs>
		<path id="SVGID_94_" d="M30.182,5.709c-9.704,1.798-7.199,10.925,1.473,10.798c1.364-0.02,2.88-0.269,4.525-0.81
			c3.633-1.198,6.46-3.007,8.245-4.694c-1.14-1.052-2.4-1.974-3.76-2.74c-0.606-0.342-1.232-0.653-1.874-0.931
			c-2.431-1.051-5.111-1.633-7.928-1.633C30.636,5.699,30.408,5.701,30.182,5.709"/>
	</defs>
	<clipPath id="SVGID_95_">
		<use xlink:href="#SVGID_94_"  style="overflow:visible;"/>
	</clipPath>
	
		<linearGradient id="SVGID_96_" gradientUnits="userSpaceOnUse" x1="-31.9746" y1="81.998" x2="-30.9746" y2="81.998" gradientTransform="matrix(-13.1787 16.2204 16.6163 13.5004 -1744.1216 -586.1864)">
		<stop  offset="0" style="stop-color:#8FDCFF"/>
		<stop  offset="0.24" style="stop-color:#3BB7FF"/>
		<stop  offset="0.77" style="stop-color:#2B62D0"/>
		<stop  offset="1" style="stop-color:#0037AD"/>
	</linearGradient>
	<polygon style="&st31;" points="49.777,10.047 34.903,28.354 15.126,12.286 30,-6.021 	"/>
</g>
<g>
	<defs>
		<path id="SVGID_97_" d="M44.509,21.278c-2.241,3.763-1.187,7.861,4.968,4.307c0.363-0.21,0.844-0.5,1.349-0.842
			c-0.091-1.973-0.469-3.872-1.092-5.655c-0.154-0.441-0.323-0.875-0.507-1.302c-0.365-0.848-0.787-1.666-1.263-2.449
			C46.903,17.349,45.616,19.418,44.509,21.278"/>
	</defs>
	<clipPath id="SVGID_98_">
		<use xlink:href="#SVGID_97_"  style="overflow:visible;"/>
	</clipPath>
	
		<linearGradient id="SVGID_99_" gradientUnits="userSpaceOnUse" x1="-31.9707" y1="81.96" x2="-30.9707" y2="81.96" gradientTransform="matrix(-1.2581 13.8394 8.389 0.7626 -680.5034 394.1314)">
		<stop  offset="0" style="stop-color:#8FDCFF"/>
		<stop  offset="0.24" style="stop-color:#3BB7FF"/>
		<stop  offset="0.77" style="stop-color:#2B62D0"/>
		<stop  offset="1" style="stop-color:#0037AD"/>
	</linearGradient>
	<polygon style="&st32;" points="52.07,15.45 50.756,29.91 41.023,29.026 42.338,14.565 	"/>
</g>
<g>
	<defs>
		<path id="SVGID_100_" d="M25.547,35.668c-3.633,1.198-6.46,3.007-8.245,4.693c0.716,0.662,1.48,1.271,2.286,1.822
			c8.137-6.768,20.235-2.755,16.433,1.588c3.909-3.234,0.998-8.914-5.771-8.915C28.84,34.856,27.264,35.102,25.547,35.668"/>
	</defs>
	<clipPath id="SVGID_101_">
		<use xlink:href="#SVGID_100_"  style="overflow:visible;"/>
	</clipPath>
	
		<linearGradient id="SVGID_102_" gradientUnits="userSpaceOnUse" x1="-31.9819" y1="82.0098" x2="-30.9819" y2="82.0098" gradientTransform="matrix(-16.6839 23.7411 23.2057 16.3076 -2400.0857 -550.1635)">
		<stop  offset="0" style="stop-color:#1B003D"/>
		<stop  offset="0.13" style="stop-color:#1F054F"/>
		<stop  offset="0.42" style="stop-color:#3822B7"/>
		<stop  offset="0.67" style="stop-color:#A281EF"/>
		<stop  offset="1" style="stop-color:#B18FF7"/>
	</linearGradient>
	<polygon style="&st13;" points="44.124,37.803 32.45,54.416 13.108,40.824 24.783,24.211 	"/>
</g>
<g>
	<defs>
		<path id="SVGID_103_" d="M43.767,33.011c-3.229,2.569-3.317,5.262-2.193,6.56c0.738-3.514,5.298-6.18,8.265-7.603
			c0.342-1.032,0.601-2.103,0.771-3.202C48.516,29.964,45.531,31.608,43.767,33.011"/>
	</defs>
	<clipPath id="SVGID_104_">
		<use xlink:href="#SVGID_103_"  style="overflow:visible;"/>
	</clipPath>
	
		<linearGradient id="SVGID_105_" gradientUnits="userSpaceOnUse" x1="-31.9653" y1="81.9795" x2="-30.9653" y2="81.9795" gradientTransform="matrix(-4.1423 12.978 11.2505 3.5909 -1007.0944 148.0738)">
		<stop  offset="0" style="stop-color:#002EAD"/>
		<stop  offset="0.74" style="stop-color:#8825DD"/>
		<stop  offset="1" style="stop-color:#8F24E0"/>
	</linearGradient>
	<polygon style="&st36;" points="53.74,29.765 49.67,42.513 37.32,38.571 41.389,25.823 	"/>
</g>
<g>
	<defs>
		<path id="SVGID_106_" d="M44.509,21.278c-2.044,3.431-1.347,7.14,3.455,5.076c-3.074-0.654-0.786-5.773,1.173-8.774
			c-0.344-0.774-0.736-1.523-1.173-2.242C46.903,17.349,45.616,19.418,44.509,21.278"/>
	</defs>
	<clipPath id="SVGID_107_">
		<use xlink:href="#SVGID_106_"  style="overflow:visible;"/>
	</clipPath>
	
		<linearGradient id="SVGID_108_" gradientUnits="userSpaceOnUse" x1="-31.9692" y1="81.9492" x2="-30.9692" y2="81.9492" gradientTransform="matrix(-1.19 13.0821 6.6928 0.6088 -540.0477 382.8951)">
		<stop  offset="0" style="stop-color:#30A1F2"/>
		<stop  offset="0.56" style="stop-color:#2B62D0"/>
		<stop  offset="1" style="stop-color:#0037AD"/>
	</linearGradient>
	<polygon style="&st16;" points="50.317,15.444 49.082,29.02 41.285,28.311 42.52,14.735 	"/>
</g>
<g>
	<defs>
		<path id="SVGID_109_" d="M16.508,11.78c-2.808,2.899-4.746,6.645-5.391,10.817c2.094-1.197,5.078-2.84,6.843-4.243
			c4.47-3.556,2.919-7.351,0.474-7.352C17.821,11.002,17.152,11.241,16.508,11.78"/>
	</defs>
	<clipPath id="SVGID_110_">
		<use xlink:href="#SVGID_109_"  style="overflow:visible;"/>
	</clipPath>
	
		<linearGradient id="SVGID_111_" gradientUnits="userSpaceOnUse" x1="-32.0332" y1="82.0264" x2="-31.0337" y2="82.0264" gradientTransform="matrix(5.723 -13.5918 -11.9526 -5.0328 1177.5461 1.3187)">
		<stop  offset="0" style="stop-color:#266BFF"/>
		<stop  offset="1" style="stop-color:#0022A8"/>
	</linearGradient>
	<polygon style="&st11;" points="6.97,20.851 12.821,6.956 26.577,12.748 20.726,26.644 	"/>
</g>
<g>
	<defs>
		<path id="SVGID_112_" d="M12.25,25.779c-0.364,0.209-0.844,0.499-1.349,0.843c0.091,1.973,0.469,3.872,1.091,5.655
			c0.155,0.439,0.324,0.874,0.508,1.301c0.365,0.849,0.787,1.666,1.263,2.45c1.061-2.014,2.348-4.082,3.455-5.941
			c1.635-2.747,1.516-5.67-1.059-5.67C15.205,24.416,13.914,24.818,12.25,25.779"/>
	</defs>
	<clipPath id="SVGID_113_">
		<use xlink:href="#SVGID_112_"  style="overflow:visible;"/>
	</clipPath>
	
		<linearGradient id="SVGID_114_" gradientUnits="userSpaceOnUse" x1="-32.0376" y1="81.9746" x2="-31.0376" y2="81.9746" gradientTransform="matrix(8.3682 -11.1573 -10.6281 -7.9713 1149.9246 331.9257)">
		<stop  offset="0" style="stop-color:#8F88F8"/>
		<stop  offset="1" style="stop-color:#4859F2"/>
	</linearGradient>
	<polygon style="&st33;" points="5.327,31.848 13.764,20.599 24.427,28.597 15.99,39.845 	"/>
</g>
<g>
	<defs>
		<path id="SVGID_115_" d="M12.25,25.779c-0.364,0.209-0.844,0.499-1.349,0.843c0.043,0.924,0.148,1.832,0.313,2.719
			c2.095-1.472,6.052-3.174,6.844-1.136c0.611-2.053,0.085-3.788-1.899-3.789C15.205,24.416,13.914,24.817,12.25,25.779"/>
	</defs>
	<clipPath id="SVGID_116_">
		<use xlink:href="#SVGID_115_"  style="overflow:visible;"/>
	</clipPath>
	
		<linearGradient id="SVGID_117_" gradientUnits="userSpaceOnUse" x1="-31.9297" y1="82.0918" x2="-30.9297" y2="82.0918" gradientTransform="matrix(-6.0324 4.3869 4.1176 5.662 -512.9481 -299.9616)">
		<stop  offset="0" style="stop-color:#060FB8"/>
		<stop  offset="0.14" style="stop-color:#0F18BD"/>
		<stop  offset="0.75" style="stop-color:#6A6EF3"/>
		<stop  offset="1" style="stop-color:#7074F6"/>
	</linearGradient>
	<polygon style="&st12;" points="21.012,27.638 13.588,33.036 8.559,26.119 15.982,20.721 	"/>
</g>
<g>
	<defs>
		<path id="SVGID_118_" d="M16.508,11.78c-0.332,0.342-0.65,0.695-0.957,1.059c2.838-1.633,4.963,3.169,2.409,5.515
			c4.47-3.556,2.919-7.351,0.474-7.352C17.821,11.002,17.152,11.241,16.508,11.78"/>
	</defs>
	<clipPath id="SVGID_119_">
		<use xlink:href="#SVGID_118_"  style="overflow:visible;"/>
	</clipPath>
	
		<linearGradient id="SVGID_120_" gradientUnits="userSpaceOnUse" x1="-31.936" y1="82.0586" x2="-30.9364" y2="82.0586" gradientTransform="matrix(-6.5301 5.0226 5.1108 6.6447 -606.1815 -372.2909)">
		<stop  offset="0" style="stop-color:#001A69"/>
		<stop  offset="0.69" style="stop-color:#0832BA"/>
		<stop  offset="1" style="stop-color:#0933BC"/>
	</linearGradient>
	<polygon style="&st35;" points="25.983,15.621 18.108,21.678 11.998,13.735 19.873,7.678 	"/>
</g>
<g>
	<path style="&st27;" d="M125.304,13.361c0.008,6.634,0.016,13.016,0.016,19.161c0,1.509,0.6,2.805,1.801,3.87
		c1.192,1.074,2.631,1.611,4.312,1.611h7.053V34.67h-6.523c-0.83,0-1.524-0.292-2.077-0.877c-0.562-0.584-0.838-1.279-0.838-2.085
		V20.699h9.438v-3.357h-9.462v-3.981H125.304z M105.459,20.714h7.085c0.924,0,1.689,0.277,2.298,0.829
		c0.608,0.546,0.924,1.241,0.94,2.094v2.639h-13.584v-2.639c0-0.838,0.316-1.533,0.939-2.085
		C103.762,20.999,104.536,20.714,105.459,20.714 M104.583,17.366c-1.683,0-3.12,0.537-4.305,1.603
		c-1.184,1.074-1.777,2.369-1.777,3.878V29.6v4.193c0,1.169,0.482,2.164,1.446,2.985c0.964,0.813,2.132,1.225,3.499,1.225h14.208
		v-3.215h-13.561c-0.537,0-0.987-0.134-1.35-0.395c-0.364-0.261-0.545-0.601-0.545-1.02V29.6h17.312v-6.753
		c0-1.509-0.601-2.804-1.785-3.878c-1.185-1.066-2.622-1.603-4.305-1.603H104.583z M142.763,17.366l11.151,20.637h4.447
		l11.151-20.637h-4.233l-9.146,16.885l-9.138-16.885H142.763z M179.643,17.342c-1.683,0-3.12,0.537-4.305,1.603
		c-1.185,1.074-1.777,2.369-1.777,3.878v15.157h3.721V23.613c0-0.853,0.308-1.556,0.924-2.109c0.624-0.553,1.39-0.829,2.313-0.829
		h6.871v-3.333H179.643z M193.506,13.361v24.642h3.719v-7.085l1.715-1.477l8.956,8.562h5.276l-11.477-10.947l11.334-9.714h-5.528
		l-10.276,8.632V13.361H193.506z M92.708,22.847c0-1.509-0.6-2.804-1.784-3.886c-1.186-1.082-2.623-1.619-4.305-1.619h-9.162
		c-1.682,0-3.119,0.537-4.304,1.619c-1.185,1.082-1.777,2.377-1.777,3.886v15.156h3.72V23.637c0-0.853,0.308-1.556,0.924-2.109
		c0.624-0.553,1.39-0.829,2.314-0.829h7.384c0.925,0,1.699,0.276,2.315,0.829c0.616,0.553,0.924,1.256,0.924,2.109v14.366h3.751
		V22.847z"/>
</g>
</svg>
