<svg width="29" height="24" viewBox="0 0 29 24" fill="none" xmlns="http://www.w3.org/2000/svg">
<path d="M28.1953 3.20005C28.1953 2.56353 27.9267 1.95308 27.4484 1.50299C26.9702 1.05291 26.3216 0.800049 25.6453 0.800049L3.54531 0.800048C2.86901 0.800048 2.22041 1.0529 1.74219 1.50299C1.26398 1.95308 0.995314 2.56353 0.995314 3.20005L0.995313 14.4C0.995313 15.0366 1.26397 15.647 1.74219 16.0971C2.22041 16.5472 2.86901 16.8 3.54531 16.8L6.09531 16.8C6.32075 16.8 6.53695 16.7158 6.69635 16.5657C6.85576 16.4157 6.94531 16.2122 6.94531 16C6.94531 15.3392 7.11871 14.9168 7.34651 14.6304C7.57941 14.3376 7.92791 14.1152 8.40561 13.952C9.40521 13.6096 10.7295 13.6 12.0453 13.6C12.1571 13.6 12.2678 13.5792 12.3711 13.5389C12.4744 13.4985 12.5682 13.4394 12.6471 13.3648L13.135 12.9072L15.1971 10.9664C15.991 10.2192 16.5231 10 16.8206 9.95845C17.0586 9.92645 17.2184 9.99365 17.3816 10.1536C17.7301 10.496 17.9664 10.7408 18.0378 11.0176C18.082 11.1824 18.1126 11.5584 17.3952 12.2336L12.2952 17.0336C12.1356 17.1837 12.0459 17.3872 12.0457 17.5995C12.0456 17.7046 12.0675 17.8087 12.1102 17.9058C12.1529 18.003 12.2154 18.0913 12.2944 18.1657C12.3733 18.24 12.467 18.2991 12.5701 18.3393C12.6733 18.3796 12.7839 18.4004 12.8956 18.4005C13.0072 18.4006 13.1179 18.3799 13.2211 18.3398C13.3243 18.2996 13.4181 18.2407 13.4971 18.1664L14.9472 16.8001L20.1934 16.8001L15.8414 20.8961C15.6046 21.1192 15.3235 21.2962 15.014 21.417C14.7045 21.5378 14.3728 21.6 14.0377 21.6L1.84531 21.6C1.61988 21.6 1.40368 21.6843 1.24427 21.8344C1.08486 21.9844 0.995313 22.1879 0.995313 22.4C0.995313 22.6122 1.08486 22.8157 1.24427 22.9657C1.40368 23.1158 1.61988 23.2 1.84531 23.2L14.0377 23.2C15.1644 23.1998 16.2448 22.7786 17.0416 22.0289L22.5972 16.8001L25.6453 16.8001C26.3216 16.8001 26.9702 16.5472 27.4484 16.0971C27.9267 15.647 28.1953 15.0366 28.1953 14.4001L28.1953 3.20005ZM22.2453 15.2001L16.6472 15.2L18.5971 13.3664C19.5797 12.44 19.918 11.52 19.6902 10.6384C19.6448 10.4653 19.5792 10.2973 19.4947 10.1377C19.7148 9.42244 19.7552 8.66884 19.6127 7.93642C19.4701 7.20399 19.1485 6.51281 18.6733 5.91749C18.1981 5.32217 17.5822 4.83903 16.8745 4.50625C16.1667 4.17347 15.3865 4.00017 14.5953 4.00005C13.6094 3.99998 12.6446 4.26887 11.8177 4.77418C10.9908 5.27948 10.3372 5.99953 9.93612 6.84717C9.53501 7.69482 9.40354 8.63372 9.55762 9.55023C9.71171 10.4667 10.1447 11.3216 10.8043 12.0112C9.82171 12.0384 8.74731 12.1312 7.82421 12.448C7.13231 12.6848 6.47101 13.0624 5.98821 13.6704L5.97801 13.68C5.81522 13.1928 5.49152 12.7672 5.05401 12.4651C4.61649 12.1629 4.08797 12 3.54531 12L2.69531 12L2.69531 5.60005L3.54531 5.60005C4.22161 5.60005 4.87022 5.34719 5.34844 4.8971C5.82665 4.44702 6.09531 3.83657 6.09531 3.20005L6.09531 2.40005L23.0953 2.40005L23.0953 3.20005C23.0953 3.83657 23.364 4.44702 23.8422 4.89711C24.3204 5.34719 24.969 5.60005 25.6453 5.60005L26.4953 5.60005L26.4953 12L25.6453 12C24.969 12 24.3204 12.2529 23.8422 12.703C23.364 13.1531 23.0953 13.7635 23.0953 14.4L23.0953 15.2001L22.2453 15.2001ZM3.54531 15.2L3.53001 15.2C3.30724 15.1963 3.09495 15.1103 2.93884 14.9607C2.78273 14.8111 2.69528 14.6098 2.69531 14.4L2.69531 13.6L3.54531 13.6C3.77075 13.6 3.98695 13.6843 4.14635 13.8344C4.30576 13.9844 4.39531 14.1879 4.39531 14.4L4.39531 15.2L3.54531 15.2ZM14.5953 5.60005C15.46 5.60006 16.2921 5.91012 16.9225 6.46713C17.5528 7.02415 17.934 7.78628 17.9885 8.59845C17.5975 8.40005 17.1215 8.29925 16.5724 8.37605C15.753 8.48965 14.9013 8.98085 13.9952 9.83365L12.4533 11.2848C11.9078 10.8682 11.5129 10.3028 11.3227 9.66638C11.1325 9.02991 11.1565 8.35363 11.3912 7.7305C11.626 7.10736 12.0601 6.56798 12.6339 6.18648C13.2076 5.80499 13.8928 5.60013 14.5953 5.60005ZM26.4953 4.00005L25.6453 4.00005C25.4199 4.00005 25.2037 3.91576 25.0443 3.76573C24.8849 3.61571 24.7953 3.41222 24.7953 3.20005L24.7953 2.40005L25.6453 2.40005C25.8707 2.40005 26.0869 2.48433 26.2464 2.63436C26.4058 2.78439 26.4953 2.98788 26.4953 3.20005L26.4953 4.00005ZM4.39531 2.40005L4.39531 3.20005C4.39531 3.41222 4.30576 3.6157 4.14635 3.76573C3.98695 3.91576 3.77075 4.00005 3.54531 4.00005L2.69531 4.00005L2.69531 3.20005C2.69531 2.98787 2.78487 2.78439 2.94427 2.63436C3.10368 2.48433 3.31988 2.40005 3.54531 2.40005L4.39531 2.40005ZM24.7953 15.2001L24.7953 14.4001C24.7953 14.1879 24.8849 13.9844 25.0443 13.8344C25.2037 13.6843 25.4199 13.6 25.6453 13.6L26.4953 13.6L26.4953 14.4001C26.4953 14.6122 26.4058 14.8157 26.2464 14.9657C26.0869 15.1158 25.8707 15.2001 25.6453 15.2001L24.7953 15.2001Z" fill="#3D3D3D"/>
</svg>
