<svg width="28" height="28" fill="none" xmlns="http://www.w3.org/2000/svg">
  <path d="M14 0C6.269 0 0 6.269 0 14s6.269 14 14 14 14-6.269 14-14S21.731 0 14 0Zm8 7.928L20.725 9.15a.37.37 0 0 0-.144.356v8.99a.365.365 0 0 0 .144.357l1.25 1.222v.272H15.7v-.26l1.29-1.253c.129-.128.129-.165.129-.356v-7.275l-3.594 9.113h-.484l-4.182-9.113v6.11a.832.832 0 0 0 .235.7l1.681 2.034v.272H6v-.272l1.681-2.035a.816.816 0 0 0 .219-.7V10.25a.606.606 0 0 0-.203-.522l-1.494-1.8v-.272h4.64l3.582 7.86 3.153-7.854H22v.266Z" fill="#4FB0FF"/>
</svg>
