<svg width="32" height="32" viewBox="0 0 32 32" fill="none" xmlns="http://www.w3.org/2000/svg">
<path fill-rule="evenodd" clip-rule="evenodd" d="M31.7592 15.9999C31.7592 24.7694 24.6491 31.8795 15.8796 31.8795C7.11011 31.8795 3.05176e-05 24.7694 3.05176e-05 15.9999C3.05176e-05 7.23044 7.11011 0.120361 15.8796 0.120361C24.6491 0.120361 31.7592 7.23044 31.7592 15.9999ZM26.0531 14.7534C26.3099 15.1199 26.4554 15.5527 26.4713 15.9999C26.4782 16.4375 26.3611 16.8681 26.1335 17.2419C25.9058 17.6156 25.577 17.9173 25.185 18.1119C25.2036 18.3448 25.2036 18.5777 25.185 18.8106C25.185 22.3677 21.0405 25.2577 15.9273 25.2577C10.814 25.2577 6.66945 22.3677 6.66945 18.8106C6.65158 18.5781 6.65158 18.3445 6.66945 18.1119C6.36665 17.9702 6.09812 17.7645 5.88234 17.5092C5.66656 17.2538 5.50864 16.9547 5.41943 16.6325C5.33023 16.3102 5.31185 15.9725 5.36557 15.6425C5.41929 15.3125 5.54382 14.9981 5.73062 14.7208C5.91742 14.4435 6.16204 14.2099 6.44768 14.0361C6.73332 13.8624 7.0532 13.7525 7.38534 13.7141C7.71747 13.6757 8.05397 13.7097 8.37173 13.8137C8.68948 13.9178 8.98093 14.0893 9.22607 14.3167C11.0558 13.0758 13.2085 12.3968 15.4191 12.3635L16.5942 6.8533C16.6074 6.78951 16.6331 6.72898 16.6699 6.6752C16.7066 6.62143 16.7537 6.57548 16.8084 6.54003C16.863 6.50458 16.9242 6.48033 16.9883 6.46869C17.0523 6.45704 17.1181 6.45824 17.1817 6.47219L21.0722 7.25029C21.2622 6.92387 21.5623 6.67585 21.9187 6.55076C22.2751 6.42567 22.6644 6.4317 23.0167 6.56777C23.3691 6.70383 23.6613 6.96103 23.8411 7.29318C24.0209 7.62533 24.0765 8.01069 23.9977 8.38008C23.919 8.74948 23.7112 9.07872 23.4116 9.30871C23.112 9.53869 22.7402 9.65437 22.3631 9.63496C21.9859 9.61555 21.6279 9.46234 21.3535 9.20282C21.0791 8.9433 20.9062 8.59447 20.8658 8.21895L17.4676 7.50437L16.4354 12.4588C18.6192 12.5056 20.7426 13.184 22.549 14.412C22.7902 14.1801 23.0787 14.0032 23.3947 13.8935C23.7107 13.7837 24.0467 13.7437 24.3797 13.7761C24.7126 13.8085 25.0346 13.9127 25.3235 14.0814C25.6124 14.2501 25.8613 14.4794 26.0531 14.7534ZM10.859 16.7053C10.7431 16.8787 10.6625 17.0733 10.6218 17.2778C10.5811 17.4824 10.581 17.693 10.6217 17.8976C10.7039 18.3108 10.9468 18.6745 11.297 18.9086C11.6473 19.1426 12.0762 19.228 12.4894 19.1459C12.694 19.1052 12.8886 19.0246 13.062 18.9087C13.2355 18.7929 13.3844 18.644 13.5003 18.4705C13.7344 18.1203 13.8198 17.6914 13.7376 17.2782C13.6555 16.865 13.4126 16.5013 13.0623 16.2672C12.7121 16.0332 12.2831 15.9478 11.8699 16.0299C11.4568 16.1121 11.0931 16.355 10.859 16.7053ZM15.8955 23.1775C17.3048 23.2357 18.6916 22.8679 19.8177 22.0183C19.902 21.9362 19.9501 21.824 19.9516 21.7063C19.9531 21.5887 19.9078 21.4753 19.8257 21.3911C19.785 21.3494 19.7365 21.3161 19.683 21.2931C19.6295 21.2701 19.572 21.2579 19.5137 21.2572C19.3961 21.2557 19.2827 21.301 19.1984 21.3831C18.2347 22.0745 17.0639 22.4162 15.8796 22.3518C14.6968 22.4046 13.5314 22.0517 12.5767 21.3514C12.4944 21.2838 12.3899 21.2493 12.2836 21.2545C12.1773 21.2598 12.0767 21.3043 12.0015 21.3796C11.9262 21.4549 11.8816 21.5554 11.8764 21.6618C11.8712 21.7681 11.9057 21.8725 11.9732 21.9548C13.0999 22.8038 14.486 23.2359 15.8955 23.1775ZM18.6493 18.9721C18.9113 19.1467 19.2024 19.3029 19.516 19.3029C19.7314 19.3054 19.945 19.264 20.1439 19.1813C20.3428 19.0986 20.5227 18.9763 20.6728 18.8218C20.8228 18.6672 20.9399 18.4838 21.0167 18.2826C21.0936 18.0814 21.1287 17.8666 21.1199 17.6514C21.1198 17.3771 21.0486 17.1075 20.9134 16.8689C20.7781 16.6303 20.5833 16.4308 20.348 16.2898C20.1127 16.1488 19.8449 16.0712 19.5707 16.0645C19.2965 16.0578 19.0252 16.1223 18.7833 16.2516C18.5414 16.3809 18.3371 16.5707 18.1904 16.8024C18.0436 17.0341 17.9594 17.2999 17.9459 17.5739C17.9324 17.8478 17.9901 18.1206 18.1133 18.3656C18.2366 18.6107 18.4213 18.8196 18.6493 18.9721Z" fill="#504A58"/>
</svg>
