<svg width="103" height="103" viewBox="0 0 103 103" fill="none" xmlns="http://www.w3.org/2000/svg">
<path d="M91.8846 48.9678L53.9892 11.0724C52.4012 9.4845 50.2125 8.58325 47.9379 8.58325H17.1667C12.4458 8.58325 8.58333 12.4458 8.58333 17.1666V47.9378C8.58333 50.2124 9.48458 52.4012 11.1154 53.9891L49.0108 91.8845C52.3583 95.232 57.8087 95.232 61.1562 91.8845L91.9275 61.1133C95.275 57.7658 95.275 52.3583 91.8846 48.9678ZM55.0621 85.8333L17.1667 47.9378V17.1666H47.9379L85.8333 55.062L55.0621 85.8333Z" fill="url(#paint0_linear_5319_2595)"/>
<path d="M27.8958 34.3333C31.4512 34.3333 34.3333 31.4511 34.3333 27.8958C34.3333 24.3404 31.4512 21.4583 27.8958 21.4583C24.3405 21.4583 21.4583 24.3404 21.4583 27.8958C21.4583 31.4511 24.3405 34.3333 27.8958 34.3333Z" fill="url(#paint1_linear_5319_2595)"/>
<defs>
<linearGradient id="paint0_linear_5319_2595" x1="8.58333" y1="51.4892" x2="94.4328" y2="51.4892" gradientUnits="userSpaceOnUse">
<stop stop-color="#4DB1FF"/>
<stop offset="1" stop-color="#A65FFF"/>
</linearGradient>
<linearGradient id="paint1_linear_5319_2595" x1="21.4583" y1="27.8958" x2="34.3333" y2="27.8958" gradientUnits="userSpaceOnUse">
<stop stop-color="#4DB1FF"/>
<stop offset="1" stop-color="#A65FFF"/>
</linearGradient>
</defs>
</svg>
