<svg width="14" height="13" viewBox="0 0 14 13" fill="none" xmlns="http://www.w3.org/2000/svg">
<path fill-rule="evenodd" clip-rule="evenodd" d="M3.38961 0.166754C3.4449 0.21948 3.48876 0.282115 3.51869 0.351073C3.54861 0.420031 3.56402 0.493957 3.56402 0.568617C3.56402 0.643276 3.54861 0.717202 3.51869 0.78616C3.48876 0.855118 3.4449 0.917754 3.38961 0.970479L2.02778 2.27142H8.31215C9.72916 2.27142 11.0881 2.80963 12.0901 3.76764C13.0921 4.72566 13.655 6.025 13.655 7.37984C13.655 8.73468 13.0921 10.034 12.0901 10.992C11.0881 11.9501 9.72916 12.4883 8.31215 12.4883H3.56296C3.40551 12.4883 3.25452 12.4285 3.14318 12.322C3.03185 12.2156 2.96931 12.0712 2.96931 11.9207C2.96931 11.7701 3.03185 11.6257 3.14318 11.5193C3.25452 11.4129 3.40551 11.3531 3.56296 11.3531H8.31215C9.41427 11.3531 10.4713 10.9344 11.2506 10.1893C12.0299 9.4442 12.4677 8.4336 12.4677 7.37984C12.4677 6.32608 12.0299 5.31548 11.2506 4.57035C10.4713 3.82523 9.41427 3.40663 8.31215 3.40663H2.02778L3.38961 4.70757C3.44481 4.76034 3.48859 4.82299 3.51846 4.89195C3.54833 4.9609 3.56371 5.0348 3.56371 5.10943C3.56371 5.18406 3.54833 5.25797 3.51846 5.32692C3.48859 5.39587 3.44481 5.45852 3.38961 5.51129C3.33442 5.56407 3.26889 5.60593 3.19678 5.63449C3.12466 5.66305 3.04737 5.67775 2.96931 5.67775C2.89125 5.67775 2.81396 5.66305 2.74184 5.63449C2.66973 5.60593 2.6042 5.56407 2.549 5.51129L0.174407 3.24089C0.119122 3.18816 0.0752602 3.12553 0.0453326 3.05657C0.015405 2.98761 0 2.91368 0 2.83902C0 2.76437 0.015405 2.69044 0.0453326 2.62148C0.0752602 2.55252 0.119122 2.48989 0.174407 2.43716L2.549 0.166754C2.60415 0.113896 2.66966 0.071958 2.74178 0.0433436C2.8139 0.0147291 2.89122 0 2.96931 0C3.04739 0 3.12471 0.0147291 3.19684 0.0433436C3.26896 0.071958 3.33447 0.113896 3.38961 0.166754Z" fill="#A29DB0"/>
</svg>
