<svg width="29" height="24" fill="none" xmlns="http://www.w3.org/2000/svg">
  <path d="M28.554 3.171a11.66 11.66 0 0 1-3.344.917A5.837 5.837 0 0 0 27.77.865a11.625 11.625 0 0 1-3.697 1.413A5.825 5.825 0 0 0 14.15 7.59 16.536 16.536 0 0 1 2.148 1.505a5.82 5.82 0 0 0-.788 2.928A5.825 5.825 0 0 0 3.95 9.28a5.809 5.809 0 0 1-2.637-.729v.075a5.825 5.825 0 0 0 4.67 5.71 5.866 5.866 0 0 1-2.63.1 5.826 5.826 0 0 0 5.44 4.043 11.685 11.685 0 0 1-7.232 2.494c-.464 0-.928-.027-1.39-.081a16.47 16.47 0 0 0 8.925 2.616c10.713 0 16.569-8.873 16.569-16.568 0-.25-.006-.502-.017-.752a11.839 11.839 0 0 0 2.903-3.013l.003-.004Z" fill="#4FB0FF"/>
</svg>
