<svg width="350" height="90" viewBox="0 0 350 90" fill="none" xmlns="http://www.w3.org/2000/svg">
<rect x="1" y="1" width="348" height="88" rx="44" fill="black" fill-opacity="0.5" stroke="url(#paint0_linear_3525_522)"/>
<rect x="8" y="7" width="334" height="76" rx="38" fill="black" fill-opacity="0.5" stroke="url(#paint1_linear_3525_522)" stroke-width="2"/>
<path d="M99.5861 29.605H104.896L99.2711 58H92.4761L86.8511 29.605H92.2061L95.8511 52.555L99.5861 29.605ZM112.1 29.605H117.275V58H112.1V29.605ZM131.569 54.04H140.209V58H126.349V29.605H139.849V33.565H131.569V41.44H138.544V45.445H131.569V54.04ZM170.316 29.605H175.446L170.451 58H163.881L160.686 37.975L157.536 58H150.966L145.971 29.605H151.326L154.251 52.645L157.986 29.605H163.431L167.121 52.645L170.316 29.605ZM198.888 58H194.298V29.605H199.968L204.738 46.48L209.508 29.605H215.178V58H210.633V38.065L206.853 51.835H202.668L198.888 38.11V58ZM235.677 58L234.597 52.105H228.387L227.397 58H222.222L227.937 29.605H234.912L240.897 58H235.677ZM229.062 48.19H233.877L231.402 34.6L229.062 48.19ZM247.902 29.605H258.342C261.612 29.605 263.247 31.09 263.247 34.06V43.105C263.247 46.075 261.612 47.56 258.342 47.56H253.077V58H247.902V29.605ZM258.072 42.385V34.78C258.072 34.3 257.982 33.985 257.802 33.835C257.622 33.655 257.292 33.565 256.812 33.565H253.077V43.6H256.812C257.292 43.6 257.622 43.525 257.802 43.375C257.982 43.195 258.072 42.865 258.072 42.385Z" fill="white"/>
<path d="M61 51.0025L67.1808 44.5L61 37.9975L62.9028 36L71 44.5L62.9028 53L61 51.0025Z" fill="white"/>
<path d="M61 51.0025L67.1808 44.5L61 37.9975L62.9028 36L71 44.5L62.9028 53L61 51.0025Z" fill="#C397F7"/>
<g opacity="0.75">
<path d="M51 51.0025L57.1808 44.5L51 37.9975L52.9028 36L61 44.5L52.9028 53L51 51.0025Z" fill="white"/>
<path d="M51 51.0025L57.1808 44.5L51 37.9975L52.9028 36L61 44.5L52.9028 53L51 51.0025Z" fill="#C397F7"/>
</g>
<g opacity="0.55">
<path d="M41 51.0025L47.1808 44.5L41 37.9975L42.9028 36L51 44.5L42.9028 53L41 51.0025Z" fill="white"/>
<path d="M41 51.0025L47.1808 44.5L41 37.9975L42.9028 36L51 44.5L42.9028 53L41 51.0025Z" fill="#C397F7"/>
</g>
<g opacity="0.2">
<path d="M31 51.0025L37.1808 44.5L31 37.9975L32.9028 36L41 44.5L32.9028 53L31 51.0025Z" fill="white"/>
<path d="M31 51.0025L37.1808 44.5L31 37.9975L32.9028 36L41 44.5L32.9028 53L31 51.0025Z" fill="#C397F7"/>
</g>
<path d="M288 37.9975L281.819 44.5L288 51.0025L286.097 53L278 44.5L286.097 36L288 37.9975Z" fill="#C397F7"/>
<path opacity="0.75" d="M298 37.9975L291.819 44.5L298 51.0025L296.097 53L288 44.5L296.097 36L298 37.9975Z" fill="#C397F7"/>
<path opacity="0.55" d="M308 37.9975L301.819 44.5L308 51.0025L306.097 53L298 44.5L306.097 36L308 37.9975Z" fill="#C397F7"/>
<path opacity="0.2" d="M318 37.9975L311.819 44.5L318 51.0025L316.097 53L308 44.5L316.097 36L318 37.9975Z" fill="#C397F7"/>
<defs>
<linearGradient id="paint0_linear_3525_522" x1="-0.221053" y1="88.9657" x2="349" y2="88.9657" gradientUnits="userSpaceOnUse">
<stop stop-color="#70BDF7"/>
<stop offset="1" stop-color="#C397F7"/>
</linearGradient>
<linearGradient id="paint1_linear_3525_522" x1="6.82807" y1="82.9704" x2="342" y2="82.9704" gradientUnits="userSpaceOnUse">
<stop stop-color="#70BDF7"/>
<stop offset="1" stop-color="#C397F7"/>
</linearGradient>
</defs>
</svg>
